<?xml version="1.0" encoding="UTF-8" standalone="no"?>
<!-- Created with Inkscape (http://www.inkscape.org/) -->

<svg
   width="297mm"
   height="210mm"
   viewBox="0 0 297 210"
   version="1.1"
   id="svg5"
   xml:space="preserve"
   inkscape:version="1.2.2 (b0a8486541, 2022-12-01)"
   sodipodi:docname="choni.svg"
   inkscape:export-filename="choni.jpg"
   inkscape:export-xdpi="96"
   inkscape:export-ydpi="96"
   xmlns:inkscape="http://www.inkscape.org/namespaces/inkscape"
   xmlns:sodipodi="http://sodipodi.sourceforge.net/DTD/sodipodi-0.dtd"
   xmlns="http://www.w3.org/2000/svg"
   xmlns:svg="http://www.w3.org/2000/svg"><sodipodi:namedview
     id="namedview7"
     pagecolor="#737373"
     bordercolor="#000000"
     borderopacity="0.25"
     inkscape:showpageshadow="2"
     inkscape:pageopacity="0"
     inkscape:pagecheckerboard="0"
     inkscape:deskcolor="#d1d1d1"
     inkscape:document-units="mm"
     showgrid="false"
     inkscape:zoom="0.62827251"
     inkscape:cx="433.72899"
     inkscape:cy="595.28309"
     inkscape:window-width="1920"
     inkscape:window-height="1012"
     inkscape:window-x="0"
     inkscape:window-y="0"
     inkscape:window-maximized="1"
     inkscape:current-layer="layer2" /><defs
     id="defs2"><linearGradient
       id="linearGradient2256"
       inkscape:swatch="solid"><stop
         style="stop-color:#ffffff;stop-opacity:1;"
         offset="0"
         id="stop2254" /></linearGradient></defs><g
     inkscape:groupmode="layer"
     id="layer5"
     inkscape:label="White"
     style="display:inline;fill:#000000"><path
       style="display:inline;fill:#ffffff;fill-opacity:1;stroke:none;stroke-width:0.180536;stroke-opacity:1"
       d="m 104.20768,178.85573 c -4.17612,-0.76515 -6.730271,-1.87975 -8.564021,-3.73726 -1.092438,-1.10661 -1.215672,-1.18261 -1.536766,-0.94782 -0.463527,0.33894 -1.248772,0.32293 -1.95901,-0.0399 -0.754823,-0.38563 -4.481514,-2.81084 -7.591603,-4.94037 -3.075159,-2.10559 -6.201336,-5.01778 -9.787028,-9.11709 -4.700814,-5.37416 -7.181793,-10.69292 -8.926566,-19.13689 -0.812693,-3.93309 -1.018025,-5.21436 -1.432153,-8.93656 -0.649016,-5.83339 -0.545888,-3.12428 -0.541858,-7.83164 -0.0179,-0.51542 0.03726,-2.56982 -2.21211,-3.73559 l -2.855625,0.38366 -2.571678,-0.54743 -2.81031,-0.90581 -1.779512,-1.264 c -1.564371,-1.11118 -2.038714,-2.72608 -2.872303,-4.7496 -0.335223,-0.81375 -0.610985,-1.61623 -0.612798,-1.78328 -0.0021,-0.16705 -0.290049,-1.91374 -0.640518,-3.88155 -0.350458,-1.96768 -0.716247,-4.14638 -0.812863,-4.84146 -0.163709,-1.1778 -0.670242,-2.900422 -1.751831,-5.957698 -1.515069,-4.282557 -2.242682,-5.701778 -3.574477,-6.972099 -0.897378,-0.855956 -2.611531,-3.025467 -2.611531,-3.305292 0,-0.05651 -0.284345,-0.49842 -0.631871,-0.98217 -0.347537,-0.483739 -0.631882,-0.93271 -0.631882,-0.997714 0,-0.06504 -0.265208,-0.503751 -0.589364,-0.974972 -0.971731,-1.412665 -2.596305,-4.860887 -3.377279,-7.168402 -2.239132,-6.615958 -2.578459,-8.148502 -2.578299,-11.644616 1.28e-4,-2.808728 0.27088,-4.2581 1.103616,-5.907729 0.311756,-0.617596 0.566835,-1.210371 0.566835,-1.317264 0,-0.16646 0.25412,-0.613949 1.354025,-2.384332 1.4271,-2.297045 3.532652,-4.896677 5.64089,-6.964562 3.54599,-3.478128 5.086188,-4.263899 11.510099,-5.872184 4.194376,-1.050094 4.181743,-1.045627 10.019788,-3.546202 7.71338,-3.303821 8.842435,-3.727397 18.685547,-7.010044 15.083156,-5.030182 17.400067,-5.112507 18.559754,-5.360516 1.593829,-0.340854 2.030192,-0.20178 2.244232,0.351901 0.59536,1.540105 0.70451,-0.723844 2.88078,-2.134875 1.907,-1.236445 1.81035,-1.25125 3.33741,-1.610399 8.36435,-1.96721 10.8867,-3.26945 34.17977,-5.355427 8.55243,-0.765898 9.11017,-0.786166 12.91132,-0.469239 16.07867,1.340624 27.56648,2.703179 33.7574,4.003928 2.78718,0.5856 7.33153,1.997571 9.47819,2.944961 2.30105,1.015541 2.54745,1.342492 3.97701,2.349929 0.54471,0.383871 0.72711,0.396441 0.72711,0.05011 0,-0.375641 0.58076,-0.638236 1.41155,-0.638236 0.80968,0 13.49148,4.518274 25.58451,8.691187 2.71123,0.935558 5.59656,2.098143 10.72594,4.321794 4.84476,2.100263 6.63691,2.737977 9.47817,3.372716 3.19637,0.714072 5.54039,1.492882 7.20105,2.392583 1.59389,0.863528 1.7423,0.967116 3.07015,2.142943 1.64948,1.460652 3.84725,3.821827 5.02781,5.401654 1.43491,1.920168 3.13739,4.614358 3.65065,5.777177 1.36002,3.081133 1.35179,3.043785 1.41317,6.409049 0.0531,2.912029 0.0218,3.293672 -0.39915,4.874491 -0.25123,0.943309 -0.55128,2.08069 -0.66678,2.527518 -0.11548,0.446817 -0.48308,1.547619 -0.81686,2.446201 -0.3338,0.898592 -0.6069,1.739389 -0.6069,1.868448 0,0.731003 -2.28814,5.65394 -3.56027,7.659955 -1.83276,2.890033 -3.23246,4.851504 -4.01594,5.627712 -1.21623,1.204934 -1.8143,2.159095 -2.77257,4.423151 -2.07237,4.896244 -3.11556,8.960894 -3.91194,15.242134 -0.20285,1.59992 -0.90996,4.14154 -1.47961,5.31828 -0.22032,0.45511 -0.76235,1.17909 -1.20451,1.60882 -1.557,1.51324 -3.13995,3.94831 -5.93698,3.84404 -1.61685,-0.0602 -4.61409,0.37063 -6.06993,2.04063 -1.14191,2.67742 -0.90723,2.30378 -1.06681,5.15639 -0.32001,5.57061 -1.12846,7.41154 -1.85498,11.29201 -0.76227,4.0714 -0.88788,4.60183 -1.98805,8.39496 -0.73028,2.51782 -2.50435,6.48557 -3.67624,8.22196 -0.30548,0.45263 -0.55542,0.86616 -0.55542,0.91895 0,0.0528 -0.26403,0.4346 -0.58674,0.84849 -0.3227,0.4139 -0.66798,0.88577 -0.76728,1.04861 -0.48926,0.80235 -3.16266,3.77068 -5.50563,6.11298 -2.27966,2.27901 -3.89275,3.70012 -5.32804,4.69395 -0.60649,0.41993 -7.50688,4.97427 -8.18032,5.39914 -0.68052,0.42928 -1.61343,0.49179 -2.09415,0.14027 -0.2888,-0.21118 -0.45394,-0.11272 -1.47742,0.88098 -2.40841,2.33832 -6.58294,3.80658 -11.36436,3.99703 -3.10724,0.12378 -4.96024,-0.18436 -6.89008,-1.14576 -1.39577,-0.69532 -3.98586,-2.47094 -4.84152,-3.24629 -0.85161,-0.77166 -1.46765,-0.54757 -2.36972,-0.17162 -0.89969,0.37496 -0.79518,0.31053 -2.056,1.08933 -4.54318,2.8063 -4.26354,2.49406 -9.83094,2.82132 -4.30652,0.25315 -35.62221,0.71255 -37.73216,-0.17692 -3.24402,-1.36755 0.006,0.0343 -4.35879,-2.21276 -1.31205,-0.67544 -2.11718,-2.09027 -3.47333,-1.96362 -0.88235,0.0824 -1.54651,1.2098 -1.70083,1.59547 -0.77858,1.94589 -6.39474,2.61119 -9.19012,3.18093 -1.66997,0.34037 -5.10888,0.35006 -6.91315,0.0195 z"
       id="path2139-3"
       sodipodi:nodetypes="sssssssscccccsscsssssssssssssssssssssssssssssssssssssssssssssssccssssssssssssssssssssssss"
       inkscape:label="path2139-3" /></g><g
     inkscape:groupmode="layer"
     id="layer2"
     inkscape:label="Black"
     style="display:inline;fill:#000000"><path
       style="display:inline;fill:#000000;stroke-width:0.169333"
       d="m 107.88529,173.26157 c -3.91697,-0.71767 -6.31262,-1.7631 -8.032569,-3.50535 -1.02464,-1.03793 -1.14023,-1.10922 -1.4414,-0.889 -0.43476,0.31791 -1.171276,0.30289 -1.837436,-0.0375 -0.70798,-0.36171 -4.203411,-2.63642 -7.120501,-4.63379 -2.88433,-1.97493 -5.81651,-4.7064 -9.17969,-8.55133 -4.4091,-5.04066 -6.73612,-10.02936 -8.37262,-17.94933 -0.76226,-3.68902 -0.95485,-4.89078 -1.34328,-8.382 -0.60874,-5.47139 -0.68763,-6.76076 -0.68385,-11.176 0.004,-4.46272 0.085,-5.95613 0.66777,-12.27668 0.96616,-10.479762 0.9201,-9.769895 0.64396,-9.924432 -0.14042,-0.07858 -0.35074,-0.373278 -0.46738,-0.654885 -0.33085,-0.798735 -0.50954,-0.607703 -0.51103,0.54632 -6.8e-4,0.582084 -0.1098,1.896534 -0.24234,2.920999 -0.13253,1.02447 -0.32644,3.310468 -0.43091,5.079998 -0.29778,5.04398 -0.61512,7.76304 -1.01027,8.65635 -0.19092,0.43159 -0.34712,0.97054 -0.34712,1.19765 0,0.71737 -0.30061,1.02498 -1.73535,1.77573 l -1.39731,0.73117 -2.30158,1.7e-4 -2.30157,1.7e-4 -1.28462,-0.65204 c -1.60487,-0.81459 -2.48917,-1.81961 -3.27103,-3.71756 -0.31442,-0.76326 -0.57307,-1.51593 -0.57477,-1.67262 -0.002,-0.15668 -0.27205,-1.79498 -0.60077,-3.64067 -0.32871,-1.84558 -0.6718,-3.88908 -0.76242,-4.54102 -0.15355,-1.10471 -0.62865,-2.720438 -1.64312,-5.587993 -1.42105,-4.0168 -2.10351,-5.34795 -3.35266,-6.539435 -0.84169,-0.802836 -2.44947,-2.837724 -2.44947,-3.100183 0,-0.05295 -0.2667,-0.467492 -0.59266,-0.921214 -0.32597,-0.453721 -0.59267,-0.874834 -0.59267,-0.935807 0,-0.06097 -0.24875,-0.472483 -0.55279,-0.914468 -0.91143,-1.324996 -2.43519,-4.559236 -3.1677,-6.72356 -2.10018,-6.205401 -2.41845,-7.642834 -2.4183,-10.921999 1.2e-4,-2.634431 0.25407,-3.993862 1.03513,-5.54112 0.29241,-0.579273 0.53166,-1.135257 0.53166,-1.235519 0,-0.156127 0.23835,-0.575848 1.27,-2.236373 1.33854,-2.154494 3.31343,-4.592805 5.29084,-6.532372 3.32594,-3.262287 4.77056,-3.999295 10.79583,-5.507774 3.93409,-0.984934 3.92224,-0.980741 9.398,-3.32614 7.23472,-3.098801 8.29371,-3.496093 17.526,-6.575033 14.147157,-4.718032 14.106857,-4.707589 14.794547,-3.833326 0.336939,0.428349 0.346969,0.429956 0.816619,0.130912 0.26153,-0.166521 0.5136,-0.347557 0.56017,-0.402304 0.17273,-0.203073 3.1752,-1.8509 4.40266,-2.416289 7.27668,-3.351749 14.9824,-4.756215 36.83,-6.712743 8.02171,-0.71837 8.54483,-0.737382 12.1101,-0.440114 15.08089,1.257423 25.85583,2.535423 31.66257,3.755452 2.61422,0.549262 6.87656,1.873617 8.89,2.762216 2.15827,0.952515 5.0045,2.495902 6.34535,3.440814 0.51091,0.36005 0.68199,0.371841 0.68199,0.047 0,-0.352325 0.54472,-0.598624 1.32395,-0.598624 0.75944,0 10.03913,3.001169 21.38172,6.915131 2.54298,0.877497 5.24926,1.96794 10.06033,4.053594 4.54411,1.969928 6.22505,2.568074 8.89,3.163423 2.99801,0.669756 5.19657,1.400236 6.75418,2.244107 1.49498,0.809945 1.63417,0.907098 2.87962,2.009961 1.54713,1.370014 3.60851,3.584662 4.71581,5.06645 1.34586,1.801007 2.94269,4.328014 3.42411,5.418667 1.27562,2.889935 1.2679,2.8549 1.32547,6.011333 0.0498,2.731321 0.0205,3.089283 -0.37438,4.572 -0.23564,0.884767 -0.51707,1.951567 -0.6254,2.370667 -0.10832,0.419099 -0.4531,1.451582 -0.76618,2.294407 -0.31308,0.842826 -0.56923,1.63145 -0.56923,1.7525 0,0.685642 -2.14615,5.303081 -3.33934,7.184607 -1.71902,2.710694 -3.03186,4.550442 -3.76672,5.278485 -1.14075,1.13016 -1.70171,2.025105 -2.60052,4.148667 -1.94376,4.592399 -2.92222,8.404817 -3.66918,14.296267 -0.19026,1.50064 -0.85349,3.88453 -1.38779,4.98825 -0.20665,0.42687 -0.71504,1.10592 -1.12976,1.50898 -1.46039,1.41934 -3.1633,1.9704 -5.78676,1.87259 -1.51652,-0.0565 -1.70119,-0.10505 -3.12921,-0.82208 -1.26292,-0.63412 -1.5419,-0.84724 -1.66245,-1.27 -0.0797,-0.2794 -0.28626,-0.9652 -0.4591,-1.524 -0.46614,-1.50706 -0.83948,-4.01551 -0.84246,-5.66018 -0.004,-2.23246 -0.3006,-6.10562 -0.76319,-9.967096 -0.23073,-1.926119 -0.42069,-3.922341 -0.42211,-4.436049 -0.003,-1.172149 -0.24552,-1.642344 -0.38938,-0.755751 -0.056,0.345235 -0.2663,1.024388 -0.46725,1.509234 l -0.36537,0.881534 0.45969,4.21882 c 0.25283,2.320348 0.52539,5.247518 0.60569,6.504818 0.0803,1.2573 0.223,3.0099 0.31713,3.89466 0.40616,3.81767 0.57465,9.7339 0.37578,13.19551 -0.30016,5.22492 -0.79187,9.6655 -1.4733,13.30517 -0.71496,3.81875 -0.83278,4.31626 -1.86468,7.874 -0.68497,2.36157 -2.34894,6.0831 -3.4481,7.71173 -0.28653,0.42455 -0.52096,0.81242 -0.52096,0.86193 0,0.0495 -0.24765,0.40763 -0.55033,0.79584 -0.30268,0.38821 -0.62653,0.8308 -0.71967,0.98354 -0.45889,0.75256 -2.96639,3.53668 -5.16397,5.73363 -2.1382,2.13759 -3.65118,3.47051 -4.99741,4.40266 -0.56885,0.39387 -7.04102,4.66559 -7.67268,5.06409 -0.63829,0.40265 -1.5133,0.46128 -1.96419,0.13157 -0.27088,-0.19807 -0.42577,-0.10572 -1.38574,0.82631 -2.25895,2.19322 -6.17443,3.57036 -10.65914,3.74899 -2.91441,0.1161 -4.65242,-0.17292 -6.46251,-1.07466 -1.30915,-0.65217 -2.79025,-2.00306 -3.26398,-2.97701 -0.15188,-0.31222 -0.33149,-0.65725 -0.39917,-0.76674 -0.0855,-0.13833 -0.98686,0.23561 -2.95312,1.22509 -4.47408,2.25147 -6.07485,2.67387 -11.29676,2.98082 -4.03928,0.23744 -33.25956,0.10044 -35.39066,-0.16594 -3.1943,-0.39926 -4.91676,-0.99172 -9.01085,-3.09933 -1.23063,-0.63352 -2.2701,-1.15185 -2.30994,-1.15185 -0.0398,0 -0.19087,0.29597 -0.33561,0.65772 -0.73027,1.82513 -3.28288,3.62186 -5.9048,4.15625 -1.56633,0.31925 -4.79183,0.32834 -6.48414,0.0183 z m 1.18117,-66.37778 c 3.25858,-0.94298 7.08606,-3.55613 8.11583,-5.54097 0.54651,-1.05338 0.54749,-1.368678 0.009,-2.800208 -0.49651,-1.319101 -1.44213,-2.964278 -2.52187,-4.387487 -1.00616,-1.326226 -2.8893,-2.973309 -4.11004,-3.594845 -0.8794,-0.447743 -0.95435,-0.45022 -0.72625,-0.02401 0.23438,0.437947 1.28146,3.728413 1.53561,4.825697 0.10786,0.465666 0.1998,1.608666 0.20431,2.539995 0.008,1.61697 -0.0239,1.76971 -0.70427,3.386668 -0.39186,0.93133 -0.89953,1.97745 -1.12815,2.3247 -0.22861,0.34726 -0.41566,0.71429 -0.41566,0.81564 0,0.10134 -0.18303,0.42682 -0.40672,0.72329 -0.66211,0.87751 -1.35238,2.20901 -1.09474,2.11173 0.1273,-0.0481 0.68678,-0.21916 1.24329,-0.3802 z m 85.32934,0.20451 c -0.0679,-0.11642 -0.3278,-0.51647 -0.57753,-0.889 -0.68531,-1.0223 -2.15617,-3.8141 -2.64683,-5.02387 -0.64863,-1.599268 -0.74285,-4.156819 -0.2348,-6.37323 0.30922,-1.348991 0.86709,-3.011617 1.48064,-4.412774 0.15485,-0.353634 -0.54892,-0.08437 -1.64332,0.628726 -2.02275,1.318006 -4.33891,4.092468 -5.53821,6.634063 -0.89093,1.888107 -0.99863,2.423215 -0.64537,3.206615 0.1671,0.37057 0.44567,0.80213 0.61904,0.95903 0.17336,0.15689 0.31521,0.34985 0.31521,0.42879 0,0.0789 0.28575,0.40076 0.635,0.71515 1.71133,1.54051 3.53275,2.67322 5.55686,3.45574 2.36677,0.91499 2.89961,1.04839 2.67931,0.67076 z m 12.3971,-3.41207 c 1.51299,-1.51299 -0.0481,-3.54782 -1.96241,-2.5579 -0.68316,0.35328 -1.01786,0.89749 -1.01786,1.65501 0,0.94343 0.58561,1.47862 1.6179,1.47862 0.66883,0 0.87286,-0.0862 1.36237,-0.57573 z m -102.79458,-0.17857 c 0.30583,-0.30583 0.41564,-0.59865 0.41564,-1.10836 0,-0.50971 -0.10981,-0.80254 -0.41564,-1.10836 -0.30582,-0.30583 -0.59865,-0.41564 -1.10836,-0.41564 -0.50971,0 -0.80254,0.10981 -1.10836,0.41564 -0.30583,0.30582 -0.41564,0.59865 -0.41564,1.10836 0,0.50971 0.10981,0.80253 0.41564,1.10836 0.30582,0.30583 0.59865,0.41564 1.10836,0.41564 0.50971,0 0.80254,-0.10981 1.10836,-0.41564 z m -5.800549,-4.249708 c 0.96638,-0.65667 1.47486,-1.85352 1.47486,-3.471506 0,-1.517569 -0.28765,-2.031675 -1.42603,-2.548701 -0.837066,-0.380177 -2.738786,-0.427536 -3.532416,-0.08797 -0.658951,0.281949 -1.389691,1.03418 -1.634781,1.682879 -0.26223,0.694031 -0.22036,2.231851 0.0804,2.951558 0.58535,1.40096 1.412061,1.90427 3.129231,1.90512 1.08631,5.1e-4 1.36628,-0.0627 1.908786,-0.43138 z m 103.546149,-1.15989 c 0.95783,-0.48757 1.45489,-0.992166 1.80663,-1.833968 0.59236,-1.417745 0.0637,-3.309127 -1.09259,-3.90886 -0.45891,-0.238025 -0.83044,-0.287333 -1.64622,-0.218484 -1.24916,0.105424 -1.77253,0.353397 -2.64231,1.25191 -1.33926,1.383506 -1.23746,4.079537 0.18313,4.850272 0.75489,0.40957 2.44822,0.33923 3.39136,-0.14087 z M 104.13894,96.59281 c 0.14202,-0.225518 0.11993,-0.357833 -0.0957,-0.573488 -0.50727,-0.507273 -1.2641,0.155697 -0.80678,0.70673 0.2633,0.317251 0.65525,0.259386 0.9025,-0.133242 z m 103.63201,-0.169333 c 0.14202,-0.225518 0.11992,-0.357834 -0.0957,-0.573488 -0.50728,-0.507274 -1.2641,0.155697 -0.80678,0.706729 0.2633,0.317252 0.65524,0.259387 0.9025,-0.133241 z"
       id="path2139"
       sodipodi:nodetypes="ssscssssccsscssssscccsscsssssssccssssssssssssssssssssssssssssssssssssssssssscsscsssssssssssssssssssssssssssscscsssscsssscccssssssssssssssssssssssssssscssssccccsssssssscsssscsss" /></g><g
     inkscape:groupmode="layer"
     id="layer3"
     inkscape:label="Light Brown"
     style="display:inline"><path
       style="display:inline;fill:#fee8b1;stroke-width:0.169333"
       d="m 134.55255,169.97381 c -1.87942,-0.11695 -5.334,-0.59554 -5.334,-0.73895 0,-0.0251 0.2286,-0.60008 0.508,-1.27764 0.2794,-0.67755 0.508,-1.32931 0.508,-1.44835 0,-0.11904 0.25993,-0.81341 0.57762,-1.54304 0.31768,-0.72963 0.62531,-1.47356 0.68362,-1.65317 0.29199,-0.70798 0.2538,-0.60224 0.5528,-1.05519 0.87245,-2.4332 1.39458,-2.8158 4.32636,-3.68361 2.07631,-0.5992 5.88171,-0.58519 6.77365,-0.58647 0.1273,-1.9e-4 0.25682,-0.007 0.76921,-0.0273 0.59055,-0.0198 0.029,-0.10054 4.02322,-0.1 1.23034,-0.0128 -0.77465,-0.0838 9.38216,0.19264 0.8236,0.0291 1.01125,-0.0157 1.85222,-0.004 0.4618,0.007 0.86501,-0.0252 1.48585,-0.0202 0.60076,0.005 0.98775,0.0815 1.34011,0.13892 0.81974,0.13349 0.85986,0.14248 1.33482,0.34912 1.18989,0.46745 1.20004,0.48853 2.19769,1.05123 0.17782,0.1003 0.89088,0.41985 2.09143,1.72071 0.93003,1.09364 1.02781,1.41811 1.24644,1.84242 l 0.12923,0.42333 c 0.0711,0.23283 0.3045,0.76623 0.51869,1.18533 0.32087,0.62783 1.30637,3.18733 1.63488,4.24604 0.0961,0.30959 -0.7748,0.53941 -3.24324,0.85589 -1.82072,0.23345 -29.94102,0.34472 -33.35867,0.132 z m 20.32888,-5.5873 c 1.42319,-1.42319 0.009,-2.90241 -3.2275,-3.37564 -5.75433,-0.84141 -10.24338,0.003 -10.24338,2.05283 0,1.50323 1.20351,1.87998 3.71782,1.14223 1.96197,-0.57569 6.33745,-0.36098 7.36909,0.3616 0.57417,0.40217 1.90157,0.30138 2.38397,-0.18102 z m 49.46147,0.44153 c 0.14078,-0.41317 0.38654,-0.79267 0.54613,-0.84332 0.29432,-0.0934 1.54553,-2.06909 1.54553,-2.44042 0,-0.11128 0.1973,-0.59169 0.43845,-1.06757 0.24115,-0.47588 0.62567,-1.4068 0.85449,-2.06871 0.22884,-0.6619 0.61627,-1.77496 0.86096,-2.47346 0.50348,-1.43714 0.65667,-8.45834 0.23649,-10.83734 -0.77778,-4.40353 -1.59055,-7.50995 -2.99053,-11.43 -1.036,-2.90088 -1.46329,-4.17946 -2.37676,-7.112 -0.79084,-2.53882 -1.78093,-4.91914 -2.64131,-6.35 l -0.66183,-1.10066 0.64235,-0.10117 c 0.3533,-0.0556 0.71855,-0.12898 0.81169,-0.16297 0.0931,-0.034 0.35431,0.0405 0.58039,0.16554 0.31228,0.17272 1.0141,0.20799 2.92078,0.14679 l 2.50974,-0.0805 1.74679,-0.85972 c 3.48864,-1.71699 5.18343,-3.96219 3.934,-5.21162 -0.779,-0.77899 -1.7285,-0.60236 -3.04524,0.56649 -2.00038,1.77571 -3.43115,2.39702 -5.79836,2.51793 -1.10079,0.0562 -2.11682,0.16108 -2.25784,0.23301 -0.14737,0.0752 -0.38754,0.0349 -0.5648,-0.0947 -0.54019,-0.395 -2.74221,-0.51058 -3.26029,-0.17113 -0.43397,0.28436 -0.45229,0.27954 -1.01656,-0.26737 -0.78718,-0.76298 -0.74803,-0.79595 0.65305,-0.55007 4.59371,0.80616 10.03187,-0.34252 12.28876,-2.59571 0.12307,-0.12287 0.28016,-0.2234 0.34908,-0.2234 0.0689,0 0.27461,-0.13335 0.4571,-0.29633 0.18249,-0.16299 0.82501,-0.67734 1.42782,-1.143 1.13321,-0.8754 3.55358,-3.27531 3.55358,-3.52353 0,-0.0774 0.21722,-0.45933 0.4827,-0.84864 0.49945,-0.73238 1.77739,-3.45833 2.31646,-4.94118 0.48761,-1.34127 0.51738,-2.452861 0.0806,-3.008169 -0.81558,-1.036837 -2.7104,-0.237304 -2.7104,1.143672 0,0.266737 -0.96239,2.581747 -1.47906,3.557837 -1.12607,2.12739 -1.75616,2.92989 -3.32379,4.23333 -0.44804,0.37254 -1.05358,0.88689 -1.34563,1.14301 -0.29205,0.25612 -0.58477,0.46567 -0.65049,0.46567 -0.0657,0 -0.2202,0.0993 -0.34327,0.22063 -2.31256,2.28019 -6.08379,3.34623 -9.77149,2.76215 -2.97298,-0.47087 -3.61013,-0.35285 -3.84417,0.71206 -0.0548,0.2496 -0.11504,0.51977 -0.13377,0.60038 -0.0187,0.0806 -0.66687,-0.46291 -1.44033,-1.20782 l -1.40632,-1.35438 0.7355,0.14408 c 5.9794,1.17138 12.76525,0.22087 16.03463,-2.24599 5.39808,-4.07306 6.92035,-9.505532 4.14342,-14.786453 -1.12034,-2.130603 -1.46414,-2.640616 -2.65389,-3.937 -0.36326,-0.395816 -0.60999,-0.719666 -0.54829,-0.719666 0.12179,0 0.97855,0.523731 1.11628,0.68236 1.21361,1.397793 3.21734,0.916095 3.21734,-0.773448 0,-0.745717 -0.81643,-1.940912 -1.32582,-1.940912 -0.0739,0 -0.28255,-0.13335 -0.46368,-0.296334 -0.28922,-0.260204 -2.20821,-1.555287 -3.96784,-2.677786 -7.10021,-4.529365 -17.8212,-4.295294 -23.45266,0.512045 l -0.84667,0.722762 0.0587,-0.730346 c 0.13838,-1.721805 -1.53396,-2.149557 -3.29311,-0.84231 -0.5566,0.413615 -1.46473,1.006568 -2.01805,1.317669 -1.01024,0.567993 -2.71378,2.341819 -4.4132,4.595261 -1.28612,1.705409 -0.90371,3.325705 0.7849,3.325705 0.81366,0 0.92168,-0.09637 3.2831,-2.929224 1.12033,-1.343994 1.75917,-1.953557 2.45533,-2.342847 0.51755,-0.289408 1.28253,-0.802737 1.69997,-1.140729 0.41887,-0.339163 -0.66239,0.996354 -2.413,2.980425 -1.74459,1.977228 -3.17197,3.642628 -3.17197,3.70089 0,0.05826 -0.1905,0.332326 -0.42333,0.609033 -0.95064,1.129772 -0.31244,2.678452 1.10377,2.678452 0.80228,0 0.43659,0.348635 4.17415,-3.979333 2.67062,-3.092482 4.57036,-5.063578 5.64408,-5.856131 4.40013,-3.247862 12.16569,-3.578845 17.3991,-0.74158 0.44234,0.239805 0.65184,0.388097 0.46557,0.329538 -2.0341,-0.639481 -8.50179,-0.803718 -10.42779,-0.748277 -0.45061,0.01297 0.008,-0.0067 -0.60481,0.02074 l -0.61494,0.02758 -0.83147,0.16777 c -0.82535,0.166534 -0.4224,0.121674 -1.49099,0.358233 -1.675,0.370796 -3.44065,1.213798 -4.80365,2.293462 -3.24864,2.57333 -5.45942,5.218425 -7.19582,8.609476 -0.26976,0.526821 -0.6093,1.186457 -0.7545,1.465857 -0.1452,0.2794 -0.35411,0.755653 -0.46423,1.058333 -0.2996,0.823475 -0.29574,0.825075 -2.2758,-0.943306 -0.2794,-0.249531 -0.8116,-0.606093 -1.18266,-0.79236 -0.7671,-0.385076 -2.19818,-1.807046 -2.49619,-2.480279 -0.10963,-0.247669 -0.43163,-0.585287 -0.71557,-0.750262 -0.28394,-0.164975 -0.55435,-0.343793 -0.60092,-0.397373 -0.0824,-0.09483 -1.97578,-1.354853 -3.93246,-2.617016 -0.96054,-0.619608 -3.48432,-1.858171 -4.7882,-2.349851 -0.88453,-0.333544 -0.93645,-0.74414 -0.22415,-1.772439 1.47296,-2.126384 1.71888,-3.33121 0.84988,-4.163766 -1.01604,-0.973426 -2.35114,-0.417019 -3.25721,1.357451 -0.13299,0.260445 -0.49066,0.844037 -0.79483,1.29687 -0.41852,0.62309 -0.55303,1.006815 -0.55303,1.577744 0,0.640031 -0.0449,0.740705 -0.29633,0.664021 -0.30135,-0.09192 -4.78777,-0.733918 -5.715,-0.817806 l -0.508,-0.04596 -0.0847,-4.375565 c -0.0841,-4.347049 -0.0873,-4.377673 -0.48442,-4.699 -0.61185,-0.495026 -1.94896,-0.445447 -2.48661,0.0922 l -0.41564,0.415567 v 4.233357 4.233357 l -0.55034,0.08317 c -0.30268,0.04574 -1.76327,0.246995 -3.24574,0.447223 -1.48248,0.200228 -2.79693,0.403005 -2.921,0.450616 -0.16809,0.0645 -0.22559,-0.115373 -0.22559,-0.705644 0,-1.570612 -2.29408,-4.66269 -3.45936,-4.66269 -2.08208,0 -2.12036,2.291722 -0.0816,4.883613 0.39237,0.498818 0.4378,1.381721 0.0711,1.381721 -0.55322,0 -6.23383,2.867229 -6.69016,3.376791 -0.0466,0.052 -0.8593,0.616246 -1.80608,1.253886 -1.0463,0.704664 -1.75802,1.302358 -1.81476,1.524 -0.16671,0.651232 -1.5579,2.051558 -2.52357,2.540145 -0.51418,0.260152 -1.30419,0.815594 -1.75557,1.234317 -1.38738,1.287003 -1.26522,1.334173 -2.36239,-0.91225 -0.53444,-1.094255 -1.18724,-2.308086 -1.45067,-2.6974 -0.26343,-0.389313 -0.47896,-0.761887 -0.47896,-0.82794 0,-0.244946 -1.98007,-2.574354 -3.38,-3.976324 -2.55808,-2.56181 -4.80484,-3.9559 -7.2225,-4.481475 -1.06945,-0.232489 -0.93197,-0.244296 -1.58773,-0.372798 -0.65984,-0.129301 -0.60994,-0.145775 -1.14675,-0.176095 -0.36067,-0.02037 -0.38157,-0.02166 -0.86022,-0.02738 -1.50098,-0.300196 -7.283515,0.01357 -9.343085,0.476327 -1.07516,0.241572 -1.04508,0.08861 0.0805,-0.40916 5.266615,-2.32915 11.999355,-2.060877 16.093825,0.641272 1.50233,0.991467 7.52659,7.151282 7.53779,7.707398 0.0106,0.525568 2.3458,2.577346 2.93339,2.577346 1.80992,0 2.00797,-1.745054 0.40849,-3.599178 -0.58209,-0.674753 -1.49168,-1.769259 -2.02132,-2.432236 -0.52965,-0.662979 -1.32975,-1.586042 -1.778,-2.05125 -0.44826,-0.46521 -1.00552,-1.059148 -1.23835,-1.319864 l -0.42333,-0.474028 0.762,0.511798 c 0.4191,0.28149 0.99839,0.632955 1.28733,0.781031 0.28893,0.148079 1.24143,1.125258 2.11667,2.171509 2.39284,2.860399 2.38816,2.856218 3.19467,2.856218 1.47645,0 2.03509,-1.542183 1.07453,-2.966359 -1.11518,-1.653427 -3.77001,-4.44712 -4.74365,-4.991781 -0.54022,-0.302202 -1.28702,-0.795104 -1.65955,-1.095334 -1.75307,-1.412824 -3.64067,-1.200363 -3.64067,0.409778 0,0.663556 0.0174,0.668259 -1.31831,-0.355529 -4.24862,-3.256397 -11.46402,-4.04063 -18.409015,-2.000858 -1.92042,0.564034 -8.39891,4.530524 -9.560435,5.853429 -1.578194,1.797463 0.285208,3.589873 2.302432,2.214712 0.452833,-0.3087 0.927115,-0.623269 1.053956,-0.699042 0.126843,-0.07577 -0.235107,0.436672 -0.804333,1.138763 -0.569224,0.702092 -1.034955,1.341872 -1.034955,1.421735 0,0.07986 -0.201521,0.441767 -0.447821,0.804232 -0.455046,0.66966 -0.790365,1.446162 -1.5389,3.563653 -0.917226,2.594697 -0.225833,6.398683 1.545633,8.503953 0.242599,0.28831 0.441088,0.59108 0.441088,0.67283 0,0.62938 3.616184,3.55491 5.520343,4.46601 2.651302,1.26859 9.912567,1.72022 13.670067,0.85023 0.35663,-0.0826 0.60349,-0.0996 0.54858,-0.0379 -0.65671,0.73804 -2.55815,2.53744 -2.57912,2.44071 -0.0152,-0.07 -0.0725,-0.33141 -0.12732,-0.58101 -0.23321,-1.06118 -0.90164,-1.18754 -3.78405,-0.71534 -2.269999,0.37188 -4.381015,0.25317 -5.657795,-0.31815 -3.360181,-1.50358 -8.018279,-5.17866 -9.060844,-7.1487 -1.262189,-2.38503 -2.045074,-4.14342 -2.247805,-5.048647 -0.207743,-0.927611 -0.834705,-1.470678 -1.697875,-1.470678 -1.266828,0 -1.743294,1.419428 -1.01513,3.024155 0.184221,0.40599 0.334948,0.84604 0.334948,0.97789 0,0.13186 0.2667,0.76933 0.592667,1.41662 0.325967,0.64728 0.592994,1.27403 0.593392,1.39277 3.38e-4,0.11874 0.231583,0.55879 0.513745,0.97789 0.28216,0.4191 0.628675,0.99966 0.770033,1.29014 1.026999,2.11036 7.672535,7.01246 10.742259,7.92407 1.12107,0.33292 5.584655,0.35896 7.383675,0.0431 l 1.20712,-0.21195 -0.77353,0.87736 -0.77353,0.87736 -0.46829,-0.34622 c -0.91827,-0.67891 -4.921815,-0.1605 -5.380575,0.69672 -0.80204,1.49861 0.13117,2.48492 2.203126,2.32851 1.657749,-0.12514 1.687509,-0.105 1.10705,0.74922 -0.48233,0.70981 -1.968646,3.91345 -1.970356,4.24694 -6.8e-4,0.12987 -0.26736,0.94169 -0.59266,1.80404 -0.32531,0.86235 -0.59146,1.72042 -0.59146,1.90681 0,0.1864 -0.25629,1.04294 -0.56953,1.90342 -1.75561,4.82276 -2.998562,8.48776 -3.143564,9.26919 -0.07777,0.4191 -0.391387,1.9431 -0.696934,3.38667 -0.551674,2.6064 -0.555643,2.65884 -0.570421,7.53533 l -0.01488,4.91067 0.635001,1.63209 c 0.34925,0.89766 0.635,1.7185 0.635,1.8241 0,0.10559 0.293739,0.78085 0.652751,1.50057 0.359014,0.71971 0.698887,1.49907 0.755277,1.7319 0.15602,0.64421 1.10861,2.0576 1.44628,2.1459 0.27401,0.0717 0.80221,1.41781 0.55116,1.4047 -0.0924,-0.005 -2.89421,-1.81497 -3.323686,-2.14732 -0.09472,-0.0733 -0.628118,-0.43779 -1.185333,-0.80997 -0.940079,-0.6279 -3.474996,-2.49226 -3.914916,-2.87931 -0.105857,-0.0931 -0.578717,-0.49933 -1.050803,-0.90265 -3.001418,-2.56427 -7.226205,-7.61265 -8.739063,-10.44268 -0.298719,-0.5588 -0.625011,-1.1684 -0.725094,-1.35467 -0.402775,-0.74962 -1.399906,-3.13412 -1.399906,-3.34768 0,-0.12549 -0.22735,-0.85111 -0.505221,-1.6125 -0.277873,-0.76139 -0.574838,-1.78562 -0.659923,-2.27608 -0.08508,-0.49046 -0.387885,-1.92044 -0.672888,-3.17774 -0.535351,-2.3617 -1.19763,-6.57732 -1.635894,-10.41296 -0.172241,-1.50743 -0.250313,-3.90694 -0.247933,-7.62 0.0035,-5.47239 0.03022,-5.90064 0.9189,-14.73305 0.234267,-2.32833 0.543726,-5.643025 0.687686,-7.365992 0.877526,-10.502598 1.498502,-15.022227 2.722076,-19.812 0.321185,-1.2573 0.582202,-2.400299 0.580039,-2.539999 -0.0054,-0.346558 1.080413,-4.142185 1.719604,-6.011334 0.286639,-0.8382 0.557254,-1.7145 0.601367,-1.947333 0.35635,-1.880851 4.09946,-9.938864 5.73457,-12.345143 0.22529,-0.331543 0.409618,-0.671268 0.409618,-0.754941 0,-0.08367 0.2667,-0.523363 0.592666,-0.977083 0.325967,-0.453722 0.592667,-0.890016 0.592667,-0.96954 0,-0.07953 0.2667,-0.493878 0.592667,-0.920784 0.325966,-0.426905 0.592666,-0.826948 0.592666,-0.888982 0,-0.06204 0.24765,-0.424837 0.550334,-0.806226 0.302683,-0.381388 0.626533,-0.825123 0.719666,-0.986077 0.684427,-1.182833 4.277245,-5.393775 5.904684,-6.920557 0.54601,-0.512233 1.15532,-1.091953 1.35403,-1.288266 0.62809,-0.620513 3.878715,-3.199269 4.848615,-3.846459 0.51223,-0.341798 1.00753,-0.681445 1.10067,-0.754773 0.75716,-0.596138 3.58846,-2.052001 5.80485,-2.984866 2.48312,-1.045133 7.16557,-2.364702 10.55986,-2.975899 1.40984,-0.253863 2.18917,-0.439268 3.3999,-0.632634 2.59269,-0.414081 2.59997,-0.426101 4.45931,-0.653647 0.76813,-0.094 1.11812,-0.02715 5.10935,-0.466551 4.66115,-0.513155 11.97557,-1.210743 15.87873,-1.51438 3.25382,-0.253121 8.50344,0.412335 21.21798,1.512853 3.46136,0.299601 3.43989,0.297281 4.88831,0.4618 2.60725,0.296145 2.76301,0.229809 5.4414,0.787284 1.26221,0.262711 1.32799,0.261464 3.51378,0.683966 6.15122,1.188994 13.33642,3.923544 15.91853,6.05828 0.099,0.08185 0.3407,0.234822 0.53713,0.339944 0.19643,0.105122 0.45832,0.286879 0.582,0.403906 0.12368,0.117026 0.68207,0.554527 1.24087,0.972224 3.8618,2.886649 8.99555,8.27998 10.83522,11.383089 0.0943,0.159062 0.59597,0.921062 1.11484,1.693333 1.16274,1.730616 2.08459,3.216414 3.02497,4.875462 0.39592,0.6985 0.82943,1.4605 0.96337,1.693334 1.50705,2.619835 3.59776,7.651562 4.85479,11.684 1.06688,3.422531 2.87086,10.54059 3.06844,12.107333 0.047,0.372533 0.28128,1.744133 0.52068,3.048 0.23939,1.303866 0.50499,3.285066 0.59021,4.402666 0.0852,1.1176 0.35133,3.937 0.59138,6.265334 0.24003,2.328333 0.50856,5.300133 0.59673,6.603998 0.0882,1.30386 0.35618,4.12326 0.59556,6.26533 0.86359,7.72727 0.86345,16.78251 0,22.52134 -0.2383,1.58327 -0.50659,3.48827 -0.5962,4.23334 -0.0896,0.74506 -0.39247,2.29273 -0.67298,3.43925 -0.28052,1.14652 -0.51003,2.22176 -0.51003,2.38942 0,0.26553 -0.35816,1.4584 -1.45299,4.83933 -0.38305,1.18291 -2.05538,4.58827 -2.70262,5.50333 -0.29644,0.4191 -0.56856,0.84119 -0.60469,0.93797 -0.23734,0.63562 -3.13348,4.00332 -5.73837,6.67271 -2.07069,2.12196 -6.11732,5.16795 -10.86815,8.1807 l -0.45414,0.288 0.25596,-0.75123 z M 89.617045,148.3304 c 0.377943,-0.30604 0.400241,-0.43593 0.428774,-2.49767 0.03143,-2.27093 0.05148,-2.36029 1.077138,-4.79951 0.409006,-0.97269 0.585324,-1.74568 0.753191,-3.302 0.239488,-2.22032 0.49837,-2.80283 2.384057,-5.36435 2.10209,-2.85549 -0.525066,-4.85367 -2.685904,-2.04286 -1.839019,2.3922 -2.49199,3.75644 -2.667235,5.57265 -0.207342,2.14883 -0.393448,2.90632 -1.099422,4.47488 -1.045676,2.32333 -1.455136,7.08703 -0.676118,7.86605 0.537307,0.5373 1.874906,0.58725 2.485519,0.0928 z m 122.836545,-0.77015 c 0.48398,-0.48397 0.56214,-1.59309 0.16163,-2.29369 -0.13309,-0.23284 -0.2447,-0.74844 -0.248,-1.14578 -0.007,-0.80016 -0.72682,-4.59716 -1.01639,-5.35881 -0.1014,-0.26668 -0.25038,-1.66567 -0.33108,-3.10886 l -0.14673,-2.62399 -0.66937,-0.95095 c -1.21599,-1.72747 -2.8742,-2.28457 -3.86147,-1.29731 -0.74206,0.74208 -0.3264,2.63236 0.57887,2.63236 0.56908,0 0.92393,1.2381 1.05676,3.68697 0.0733,1.35123 0.24648,2.808 0.38489,3.23725 0.40617,1.25969 0.76415,3.06762 0.87639,4.42604 0.23332,2.82409 1.81288,4.19839 3.2145,2.79677 z m 10.48111,-5.27667 c 0.30749,-0.118 1.33242,-1.59772 1.60674,-2.31971 0.45246,-1.19083 -0.0152,-3.40265 -0.80935,-3.82765 -1.53941,-0.82387 -3.18738,0.70934 -2.38132,2.21548 0.15726,0.29386 0.0953,0.42562 -0.42333,0.90071 -1.55558,1.42485 0.0146,3.79585 2.00726,3.03117 z M 80.034918,134.69092 c 0.604756,-0.60475 0.56831,-1.54701 -0.09197,-2.37787 -0.708684,-0.89177 -0.891061,-1.71527 -0.912827,-4.1218 -0.02513,-2.77839 -1.172207,-3.7261 -2.682247,-2.21606 l -0.520634,0.52063 0.0992,2.66712 c 0.177189,4.76415 2.178946,7.45752 4.108486,5.52798 z m 145.457342,-1.69333 c 0.52072,-0.52072 0.64608,-5.42089 0.1626,-6.35583 -0.89209,-1.7251 -3.30956,-1.21795 -3.05928,0.6418 0.0589,0.43761 0.16151,1.85038 0.22802,3.13948 0.11279,2.18572 0.14791,2.36562 0.52072,2.667 0.58716,0.47468 1.6255,0.42999 2.14794,-0.0925 z m -16.34837,-10.6841 c 0.51223,-0.1525 1.31233,-0.38375 1.778,-0.51389 1.03945,-0.2905 1.43933,-0.74081 1.43933,-1.62083 0,-1.3746 -1.75649,-1.98647 -3.5191,-1.22588 -0.34627,0.14941 -1.4287,0.41109 -2.40543,0.5815 -2.02716,0.35369 -2.3728,0.60325 -2.3728,1.71329 0,1.51826 2.08849,1.95644 5.08,1.06581 z M 90.533585,121.48292 c 0.922174,-0.92217 0.294876,-2.6229 -0.973666,-2.63979 -0.72377,-0.01 -1.579242,-0.32808 -2.401994,-0.89412 -1.673423,-1.15127 -3.420841,0.13573 -2.707662,1.99425 0.555949,1.44878 5.039453,2.58353 6.083322,1.53966 z m 4.572,-3.72533 c 1.22612,-1.22612 0.39618,-2.42826 -1.880597,-2.724 -2.336172,-0.30345 -3.450532,-0.75229 -4.317096,-1.73881 -1.170759,-1.33283 -2.308677,-1.62428 -3.131033,-0.80192 -0.886886,0.88689 -0.345367,2.31891 1.483284,3.92247 1.694558,1.48598 6.82412,2.36358 7.845442,1.34226 z M 218.38026,88.632247 c 0.82513,-0.825133 0.13672,-3.057156 -1.69338,-5.490439 -0.37675,-0.500908 -0.85495,-1.163562 -1.06269,-1.472565 -1.27694,-1.899396 -4.86625,-3.573644 -8.68163,-4.049579 -0.51224,-0.0639 -1.31234,-0.220015 -1.778,-0.34693 -0.82843,-0.225786 -3.62394,-0.527294 -6.54352,-0.705751 -2.60148,-0.159013 -4.20915,0.615428 -4.20915,2.027609 0,1.331448 1.38608,1.870732 3.18074,1.237539 0.37582,-0.132598 0.70925,-0.216037 0.74095,-0.185419 0.0317,0.03062 1.08634,0.144132 2.34364,0.252253 1.2573,0.108121 2.55504,0.266197 2.88387,0.351282 0.32884,0.08508 1.47577,0.30478 2.54874,0.488213 3.53242,0.603897 5.95394,1.700688 6.92322,3.135779 0.14273,0.211311 0.53845,0.756978 0.87937,1.212591 0.34092,0.455614 0.89455,1.361787 1.23027,2.013721 1.0151,1.971163 2.22547,2.543789 3.23757,1.531696 z M 86.233357,85.986254 c 0.188027,-0.100629 0.447194,-0.435039 0.575923,-0.743133 0.788644,-1.887489 7.751425,-4.818281 10.864015,-4.572905 2.065586,0.162836 3.049575,-1.175963 1.869586,-2.543754 -2.033686,-2.35738 -13.921376,1.652855 -15.559074,5.248755 -0.876098,1.923654 0.515619,3.539009 2.24955,2.611037 z m 43.142243,-3.48054 c 0.21938,-0.278902 0.35095,-0.69483 0.35095,-1.109451 0,-0.628173 -0.14354,-0.997194 -1.00863,-2.593046 -0.20194,-0.372533 -0.52566,-1.020233 -0.71938,-1.439333 -0.19372,-0.4191 -0.56997,-1.080529 -0.8361,-1.469844 -0.26614,-0.389312 -0.48389,-0.77133 -0.48389,-0.848925 0,-0.0776 -0.2667,-0.537112 -0.59266,-1.021145 -0.32597,-0.484032 -0.59267,-0.918895 -0.59267,-0.966361 0,-0.187681 -1.71045,-2.593438 -2.11229,-2.970948 -0.23524,-0.220996 -0.42771,-0.468375 -0.42771,-0.549729 0,-0.169152 -1.71698,-1.825048 -1.89237,-1.825048 -0.0635,0 -0.22229,-0.106849 -0.35288,-0.237441 -1.5974,-1.597395 -10.01894,-3.706772 -15.7283,-3.939531 l -2.64888,-0.107991 -0.44146,0.441452 c -1.09608,1.096085 -0.33245,2.658178 1.29945,2.658178 6.4292,0 16.78248,3.134788 17.54532,5.312413 0.0368,0.105006 0.30348,0.468955 0.59267,0.808777 0.45047,0.529355 1.0294,1.370494 1.71112,2.486111 0.0931,0.152412 0.37857,0.596453 0.63431,0.98676 0.25575,0.390306 0.5418,0.911679 0.63569,1.158605 0.0939,0.246927 0.39898,0.780771 0.67801,1.186323 0.27903,0.40555 0.50732,0.820398 0.50732,0.921886 0,0.101486 0.19691,0.496455 0.43759,0.877705 0.24067,0.381251 0.57705,1.018552 0.74752,1.416223 0.56224,1.311663 1.97445,1.743273 2.69727,0.82436 z m 44.00128,0.182569 c 0.20699,-0.144982 0.37634,-0.382665 0.37634,-0.528183 0,-0.14552 0.26252,-0.696722 0.58335,-1.224893 0.32086,-0.528173 0.66406,-1.172555 0.76268,-1.431962 0.0986,-0.259409 0.40762,-0.803465 0.68665,-1.209016 0.27903,-0.40555 0.50732,-0.820722 0.50732,-0.922603 0,-0.101881 0.24765,-0.560305 0.55033,-1.018718 0.86545,-1.310716 1.53731,-2.362748 1.905,-2.98294 0.74057,-1.249123 2.76466,-3.208449 3.72534,-3.606143 0.0931,-0.03856 0.55033,-0.241561 1.016,-0.451123 2.58126,-1.161643 8.91558,-2.487752 12.97972,-2.717344 2.48964,-0.140645 2.68361,-0.255778 2.68361,-1.592807 0,-1.831936 -3.83963,-2.094374 -9.906,-0.677071 -0.74506,0.174073 -2.04873,0.473551 -2.89704,0.665507 -4.60539,1.042128 -6.98723,2.382464 -9.21998,5.188399 -0.46033,0.578519 -0.83698,1.126967 -0.83698,1.218775 0,0.09181 -0.11272,0.260472 -0.25049,0.374809 -0.50585,0.419828 -3.38435,5.412041 -4.5784,7.940387 -1.13535,2.404046 0.064,4.269669 1.91255,2.974926 z M 136.42292,82.19758 c 0.67417,-0.674172 0.60349,-2.52064 -0.15624,-4.081859 -0.31453,-0.646344 -0.6679,-1.47997 -0.78527,-1.852504 -0.76609,-2.431591 -2.34527,-4.317999 -3.61476,-4.317999 -1.63037,0 -2.2129,1.543007 -1.07062,2.835845 0.87572,0.99114 1.22896,1.576478 1.55867,2.582821 0.16782,0.512233 0.55954,1.462583 0.87049,2.11189 0.31095,0.649305 0.56536,1.43382 0.56536,1.743363 0,1.270404 1.70621,1.904598 2.63237,0.978443 z m 30.16542,-2.546648 c 0.19863,-0.139124 0.56061,-0.774972 0.80442,-1.412998 0.5675,-1.485155 1.67418,-3.057717 3.06239,-4.351599 2.52962,-2.35774 0.3682,-4.64775 -2.29492,-2.431468 -4.16646,3.467354 -5.6167,11.029158 -1.57189,8.196065 z M 150.39825,65.184909 c 1.59796,-1.597963 -0.29903,-8.551627 -3.46204,-12.690547 -0.95198,-1.245697 -1.43281,-2.098045 -2.40081,-4.255811 l -0.79764,-1.778 0.27573,-0.784726 c 0.6022,-1.713868 0.11766,-2.686607 -1.33827,-2.686607 -3.2027,0 -2.47998,5.904594 1.37646,11.245548 2.4275,3.361955 3.88441,7.020142 3.69309,9.273086 -0.175,2.060763 1.323,3.007535 2.65348,1.677057 z m -43.778,-4.831328 c 1.20759,-1.207593 0.3553,-2.488608 -2.0431,-3.070818 -6.904955,-1.676175 -8.209265,-1.637619 -8.209265,0.242665 0,1.181579 0.22604,1.305167 3.894665,2.129453 1.8161,0.408051 3.5687,0.818833 3.89467,0.91285 1.11171,0.320648 2.00598,0.242895 2.46303,-0.21415 z m 90.75497,-0.501774 c 0.93134,-0.0035 2.73335,0.06033 4.00446,0.141778 l 2.31115,0.148094 0.44052,-0.440535 c 1.05202,-1.05201 0.42333,-2.471044 -1.18611,-2.677261 -8.37243,-1.072749 -14.23909,0.256325 -11.81806,2.677348 l 0.44062,0.440619 2.05704,-0.141866 c 1.13137,-0.07803 2.81905,-0.144706 3.75038,-0.148177 z m -62.4763,-23.374226 c 1.10636,-1.106365 -0.25547,-4.835584 -2.00839,-5.49975 -2.21994,-0.841111 -3.89035,1.706572 -1.82067,2.776846 0.36711,0.18984 0.59831,0.543975 0.94152,1.442134 0.66255,1.733881 1.88999,2.278314 2.88754,1.28077 z m 32.80697,0.07503 c 0.26509,-0.208525 0.57378,-0.763624 0.79603,-1.431474 0.23966,-0.720173 0.4728,-1.125713 0.68607,-1.193406 1.62823,-0.516775 1.20031,-3.130516 -0.51252,-3.130516 -1.86686,0 -3.27485,1.740793 -3.5168,4.348079 -0.14133,1.523092 1.3515,2.347871 2.54722,1.407317 z m 37.75485,115.109719 c -0.0925,-6.39551 -0.51898,-9.35508 -2.0139,-13.97713 -0.33955,-1.04978 -0.57863,-1.94741 -0.5313,-1.99474 0.0984,-0.0984 1.17935,2.84289 1.46566,3.9881 1.73379,6.93495 2.15936,11.4434 1.33957,14.1911 -0.1996,0.66892 -0.22105,0.48672 -0.26003,-2.20733 z m -110.853525,1.49573 c -0.517377,-2.18672 -0.10315,-6.87053 1.00492,-11.36284 0.74222,-3.00909 0.79504,-3.19586 1.34088,-4.74133 0.29604,-0.8382 0.69941,-1.9812 0.89638,-2.54 0.196966,-0.5588 0.508326,-1.4351 0.691906,-1.94733 0.65843,-1.83722 1.555829,-4.66108 1.553889,-4.88968 -0.008,-0.8941 2.01083,-5.19283 3.03891,-6.47214 0.28332,-0.35254 0.51512,-0.71748 0.51512,-0.81097 0,-0.27914 5.9516,-6.26389 7.65272,-7.69534 1.99799,-1.68127 2.05077,-1.72328 2.6231,-2.08774 0.26227,-0.167 0.51495,-0.34954 0.56151,-0.40562 0.0466,-0.0561 0.57997,-0.44008 1.18534,-0.8533 0.60536,-0.41322 1.51976,-1.06086 2.032,-1.4392 0.51223,-0.37835 1.80763,-1.27821 2.87866,-1.99969 3.79479,-2.55628 4.60141,-3.18163 6.43467,-4.98861 5.36643,-5.289518 10.95265,-8.350072 17.018,-9.32375 0.65193,-0.104657 1.40442,-0.234661 1.67219,-0.2889 0.34927,-0.07075 0.41065,-0.03941 0.57813,-0.05908 0.38187,-0.04486 0.45793,-0.06346 0.91181,-0.08998 2.99636,-0.255085 2.94002,-0.238984 5.0093,-0.149501 1.54766,0.06693 2.62739,0.403941 2.08554,0.305603 -0.41309,-0.07497 4.91486,0.716623 6.78655,1.388318 3.96311,1.422243 8.59172,4.482932 12.32792,8.1519 1.16178,1.14088 2.17225,2.07433 2.24545,2.07433 0.0732,0 0.2691,0.13335 0.4353,0.29634 0.1662,0.16298 1.09965,0.82973 2.07434,1.48166 0.97468,0.65194 1.81024,1.22404 1.8568,1.27135 0.0466,0.0473 0.6454,0.46641 1.33073,0.93133 0.68532,0.46493 1.48542,1.01706 1.778,1.22695 0.29257,0.20988 0.79864,0.57156 1.12461,0.80372 0.32597,0.23216 0.8296,0.59383 1.11919,0.80372 0.28959,0.20988 0.74679,0.53126 1.016,0.71416 0.46855,0.31833 1.54136,1.14875 2.41425,1.86878 2.22106,1.83209 8.15056,7.87575 8.15056,8.30748 0,0.0774 0.18412,0.33533 0.40914,0.57326 0.54776,0.57916 1.72537,2.73403 2.13347,3.90393 0.65708,1.88376 1.02915,3.00691 1.59874,4.826 0.34993,1.1176 0.89477,2.71928 1.21078,3.5593 0.75569,2.00885 0.72965,2.42594 -0.0368,0.58937 -2.17636,-5.21506 -4.68604,-10.097 -6.19311,-12.04704 -0.26228,-0.33937 -0.47688,-0.68637 -0.47688,-0.77111 0,-0.0847 -0.2667,-0.41258 -0.59266,-0.72852 -0.32597,-0.31594 -0.59267,-0.64464 -0.59267,-0.73045 0,-0.13205 -2.23664,-2.74268 -2.56584,-2.99488 -0.0608,-0.0466 -0.71283,-0.65617 -1.44899,-1.35467 -4.81115,-4.56506 -8.50995,-6.6 -17.57517,-9.66923 -2.12476,-0.71938 -2.69135,-1.08932 -3.36715,-1.33434 -0.58698,-0.21282 -0.80751,-0.2692 -1.62632,-0.51111 -0.33723,-0.0996 -0.5798,-0.16738 -0.94341,-0.69206 -0.86277,-1.24499 -2.56107,-2.17408 -6.24917,-3.418723 -2.33848,-0.789187 -1.28693,-0.719419 -13.21395,-0.876734 -4.00474,-0.05282 -7.62424,-0.1367 -8.04334,-0.186394 -1.70946,-0.202702 -5.58755,2.223481 -7.24533,4.532781 -0.37574,0.52342 -0.46654,0.52371 -0.76234,0.78852 -0.26524,0.23745 -0.50251,0.41569 -0.88548,0.58298 -0.41212,0.18002 -0.47157,0.32073 -1.83371,0.76326 -4.74061,1.5401 -12.42191,5.17648 -12.81047,5.45731 -0.14352,0.10373 -0.21989,0.11932 -0.38951,0.23513 -0.1543,0.10536 -0.51971,0.3152 -0.83946,0.56764 -0.31974,0.25243 -0.8383,0.64947 -1.15236,0.8823 -2.1385,1.58542 -5.36437,4.69617 -7.02401,6.77334 -1.15216,1.44201 -2.61733,3.47902 -2.61733,3.63883 0,0.0587 -0.2667,0.4561 -0.59267,0.88301 -0.32596,0.42691 -0.59266,0.85225 -0.59266,0.94521 0,0.093 -0.3048,0.65163 -0.67734,1.2415 -0.37253,0.58986 -0.67733,1.14646 -0.67733,1.23689 0,0.0904 -0.2667,0.61947 -0.59267,1.17564 -0.32596,0.55618 -0.59266,1.09557 -0.59266,1.19864 0,0.10307 -0.266699,0.71699 -0.592669,1.36428 -0.32597,0.64728 -0.59267,1.25921 -0.59267,1.35985 0,0.10064 -0.25942,0.80739 -0.5765,1.57056 -2.209266,5.31748 -3.063146,9.69634 -3.291886,16.88159 l -0.1159,3.64066 z"
       id="path343"
       sodipodi:nodetypes="ssssscccscccssscsccsssssssssssscsssssssssccssccsssssssssssssssssssssscscsscssssssssssscsssssssssssssssssscsssssssssssssssssssscccccccssssssssssssssssssscscssssssscsssssssscsssssssssssscscsssssssscsssscccssssssssssscssssccssscssssssssssscssssssssssssscssssssssssssssssssssssssccsssssssscccssssssssssssscsscssssssssssscssssscssscssssccsssssssscsssssssssssssssssssssssssssssssssssssssssssscsssscssssssssssssssssssssssssssssssssssssssssssscssssssssssssscssscsssssssssssssssssssssssscsssssssssssscssssssssssssssssssssssssssssssssssssssssssssssssssssscs" /></g><g
     inkscape:groupmode="layer"
     id="layer4"
     inkscape:label="Dark Brown"
     style="display:inline"><path
       style="display:inline;fill:#544436;stroke-width:0.169333"
       d="m 108.57196,170.50022 c -5.96362,-1.08518 -8.603513,-3.04774 -9.393702,-6.98345 -0.75668,-3.76877 -1.01543,-5.89167 -1.13114,-9.28028 -0.10739,-3.14482 0.0767,-5.99935 0.55569,-8.61852 0.13803,-0.75468 0.31652,-1.80541 0.39666,-2.33495 0.19026,-1.2573 1.065572,-4.23772 1.796062,-6.11559 0.31887,-0.81971 0.57976,-1.57832 0.57976,-1.68581 0,-2.24432 6.39052,-12.63057 9.98129,-16.22219 4.26599,-4.26699 7.73082,-6.46065 13.81005,-8.74343 1.60385,-0.60226 3.90352,-1.40685 4.02105,-1.40685 0.0702,0 0.12761,0.65271 0.12761,1.45047 0,1.70549 0.0957,1.93157 1.05447,2.49097 2.88715,1.68454 8.89987,2.03939 9.79104,0.57784 0.53037,-0.86982 0.4678,-1.42056 -0.54699,-4.8144 -0.42358,-1.41663 -0.38765,-1.49138 0.70095,-1.45808 2.30982,0.0707 2.64028,1.1885 1.79476,6.0712 -0.70662,4.08056 -0.93132,4.42317 -3.50244,5.34013 -3.28708,1.17229 -3.74084,1.5474 -3.45364,2.85498 0.3569,1.62496 6.48333,3.82899 12.06885,4.34187 l 1.22767,0.11273 -0.004,1.71848 c -0.003,1.55551 -0.0607,3.02308 -0.43499,11.1321 l -0.11404,2.47096 -4.84594,0.11786 c -4.96465,0.12074 -6.22499,0.25594 -9.33327,1.00117 -2.29688,0.5507 -3.45719,0.99509 -4.68136,1.79293 -0.96609,0.62964 -3.44664,2.99127 -3.44664,3.28142 0,0.0799 -0.22894,0.43011 -0.50875,0.7783 -0.27981,0.34819 -0.65103,0.89618 -0.82492,1.21774 -0.1739,0.32157 -0.60069,1.11807 -0.94843,1.77 -0.34774,0.65193 -0.7267,1.29963 -0.84213,1.43933 -0.4171,0.50478 -1.27844,2.16488 -1.27844,2.46398 0,0.16835 -0.3409,0.99727 -0.75755,1.84205 -0.96965,1.96601 -1.88899,4.49836 -2.09884,5.78135 -0.0903,0.55218 -0.39898,1.701 -0.68591,2.55293 -0.28693,0.85194 -0.5217,1.65344 -0.5217,1.78111 0,2.05511 -4.91865,3.9427 -8.55133,3.28165 z m 5.15919,-14.78592 c 0.38999,-0.31579 0.8447,-1.8633 0.8495,-2.89106 0.003,-0.70481 1.23197,-5.7646 1.8156,-7.47675 0.2381,-0.6985 0.5289,-1.6129 0.64623,-2.032 0.80491,-2.87521 3.44654,-5.64995 8.63215,-9.06715 0.5588,-0.36824 1.0541,-0.71155 1.10066,-0.76292 0.12778,-0.14096 4.10796,-2.49422 4.42207,-2.61452 0.81529,-0.31225 0.87451,-2.47548 0.0823,-3.00449 -0.63182,-0.42187 -1.40844,-0.1098 -4.84298,1.94611 -5.5777,3.33878 -9.61734,6.82994 -10.95949,9.47145 -0.89797,1.76729 -1.9089,4.22082 -1.91284,4.64242 -0.002,0.17624 -0.23237,1.04433 -0.51273,1.9291 -0.28035,0.88476 -0.57993,2.06586 -0.66572,2.62466 -0.0858,0.5588 -0.35037,1.91163 -0.58794,3.00629 -0.82008,3.77864 0.074,5.73438 1.93324,4.22886 z m -9.2155,-3.50212 c 0.37346,-0.37345 0.41614,-0.5582 0.4206,-1.82033 0.005,-1.31615 0.45842,-4.33388 1.08968,-7.2467 0.73611,-3.39658 4.23295,-7.78205 9.3617,-11.74069 0.25612,-0.19768 0.5505,-0.43724 0.65419,-0.53236 0.1037,-0.0951 0.52131,-0.43965 0.92803,-0.76561 1.96173,-1.57221 2.32071,-2.39982 1.49582,-3.4485 -0.74829,-0.95129 -1.72273,-0.68485 -3.74827,1.0249 -9.00405,7.60025 -11.37553,10.89091 -11.99744,16.6476 -0.0855,0.79163 -0.23296,1.89653 -0.32764,2.45533 -0.80624,4.75845 0.20555,7.34415 2.12333,5.42636 z m 34.67024,-17.85407 c 1.03532,-0.31549 2.95611,-0.81246 4.94254,-1.27881 1.2036,-0.28257 1.6122,-0.69937 1.6122,-1.6446 0,-1.32828 -1.38904,-1.87285 -3.38667,-1.32774 -0.32597,0.089 -1.20227,0.31639 -1.94733,0.50543 -3.79108,0.96185 -4.14867,1.17757 -4.14867,2.5028 0,1.46111 0.92427,1.85346 2.92793,1.24292 z m -11.81023,-9.40859 c 0.49027,-0.49028 0.56314,-1.51727 0.1626,-2.29183 -0.84381,-1.63175 -3.13363,-1.26139 -3.13363,0.50684 0,1.82809 1.82904,2.92697 2.97103,1.78499 z m -11.85334,-3.048 c 1.01383,-1.01383 0.30654,-2.8017 -1.10836,-2.8017 -0.98822,0 -1.524,0.56554 -1.524,1.60867 0,1.04312 0.53578,1.60866 1.524,1.60866 0.50971,0 0.80254,-0.10981 1.10836,-0.41563 z m 9.72497,-3.47689 c 0.49749,-0.26625 1.02,-1.25739 1.02,-1.93483 0,-1.41291 -1.83066,-2.02004 -2.89169,-0.959 -1.42286,1.42285 0.13106,3.82538 1.87169,2.89383 z m 63.41934,52.12765 c -3.85513,-0.71185 -5.41577,-2.61248 -6.34279,-7.72464 -0.2808,-1.54855 -1.28382,-4.28113 -2.3074,-6.28625 -0.50443,-0.98812 -0.91715,-1.87743 -0.91715,-1.97624 0,-0.0988 -0.2667,-0.72102 -0.59266,-1.38269 -0.32597,-0.66167 -0.59267,-1.28309 -0.59267,-1.38094 0,-0.0979 -0.23258,-0.44281 -0.51685,-0.76657 -0.28426,-0.32376 -0.68431,-0.89078 -0.889,-1.26005 -2.32998,-4.20346 -6.24575,-7.06258 -10.25233,-7.48583 -0.80584,-0.0851 -2.53195,-0.26962 -3.83582,-0.40997 -1.30387,-0.14035 -4.01318,-0.30559 -6.0207,-0.36719 l -3.65004,-0.112 -0.20833,-5.26571 c -0.11458,-2.89614 -0.25524,-6.38532 -0.31257,-7.75373 l -0.10423,-2.48801 0.4066,-0.08 c 11.56231,-2.27528 15.06709,-4.82313 9.13082,-6.63777 -2.89007,-0.88346 -4.08343,-1.99816 -4.941,-4.61533 -1.48124,-4.52053 -1.19967,-6.57479 0.94529,-6.89645 1.37594,-0.20633 1.48968,0.0284 1.02883,2.1236 -0.81287,3.6955 0.77438,5.05176 5.93826,5.07409 3.46678,0.015 4.40728,-1.02005 4.28094,-4.71125 -0.0355,-1.03776 -0.0163,-1.88684 0.0427,-1.88684 0.34454,0 6.90409,2.32528 8.36477,2.96521 0.2794,0.12241 1.0033,0.43499 1.60867,0.69462 1.95888,0.84013 4.97981,2.57101 5.92667,3.39578 0.1397,0.12168 0.635,0.53141 1.10067,0.9105 1.24597,1.01433 2.21052,1.85339 3.01313,2.62112 0.95563,0.91408 3.16753,3.39587 3.16753,3.55401 0,0.0695 0.24765,0.41365 0.55034,0.76476 0.47091,0.54625 1.01699,1.3345 1.73566,2.50541 0.0931,0.15173 0.45509,0.71166 0.80434,1.24428 0.34925,0.53261 0.635,1.05606 0.635,1.16321 0,0.10715 0.14027,0.39708 0.31174,0.64429 0.60545,0.87296 2.76547,5.62216 3.40057,7.47681 0.11162,0.32596 0.38057,1.08796 0.59768,1.69333 2.1796,6.07773 3.06976,15.31109 2.06507,21.42067 -0.16847,1.02446 -0.36776,2.31986 -0.44288,2.87866 -0.0751,0.5588 -0.3068,1.4732 -0.51487,2.032 -0.20806,0.5588 -0.46433,1.27497 -0.56949,1.59149 -0.17702,0.53292 -1.38101,1.91436 -2.26017,2.5933 -1.79367,1.38516 -7.32323,2.59476 -9.78432,2.14034 z m 0.34637,-14.95343 c 0.71769,-0.7177 0.22777,-4.60132 -1.21356,-9.61981 -0.31467,-1.09565 -0.57214,-2.11114 -0.57214,-2.25663 0,-0.44722 -1.39853,-3.7225 -2.20601,-5.16638 -0.32649,-0.58381 -2.66907,-3.08442 -3.55316,-3.79288 -1.21661,-0.97491 -1.96117,-1.54981 -2.30268,-1.778 -0.20909,-0.1397 -0.93815,-0.64228 -1.62016,-1.11685 -1.30168,-0.90577 -3.45716,-2.24968 -5.50288,-3.43096 -1.74709,-1.00885 -2.81254,-0.92732 -3.03001,0.23187 -0.1872,0.99786 0.0469,1.75198 0.65576,2.11265 0.29762,0.1763 0.61733,0.38548 0.71047,0.46484 0.0931,0.0794 0.62653,0.403 1.18533,0.71921 0.5588,0.3162 1.2065,0.70273 1.43933,0.85894 0.23284,0.15621 0.84244,0.55689 1.35467,0.8904 1.3714,0.8929 2.6656,1.80031 3.79153,2.65837 0.54862,0.41811 1.19632,0.9111 1.43933,1.09553 2.38266,1.80838 4.60492,5.66841 5.26622,9.14734 0.0708,0.37253 0.36672,1.62983 0.65757,2.794 0.29085,1.16416 0.66172,2.95486 0.82418,3.97933 0.40823,2.57422 1.45059,3.43463 2.67621,2.20903 z m 9.378,-3.4172 c 0.43849,-0.55745 0.4689,-2.2862 0.0889,-5.05716 -0.14048,-1.02447 -0.3247,-2.43417 -0.40937,-3.13267 -0.19927,-1.64384 -1.23132,-4.93723 -1.87404,-5.98025 -0.27641,-0.44857 -0.50257,-0.85086 -0.50257,-0.89398 0,-0.39376 -2.94542,-3.55751 -5.3449,-5.7411 -2.07369,-1.88712 -2.14427,-1.94974 -3.05385,-2.70934 -0.44609,-0.37253 -0.93292,-0.79163 -1.08185,-0.93133 -2.2047,-2.06819 -4.06607,-2.06944 -4.06607,-0.003 0,0.53405 0.41402,1.52446 0.63936,1.52942 0.0675,0.002 0.36122,0.21104 0.65281,0.46567 0.29159,0.25463 0.85668,0.72966 1.25574,1.05563 5.85008,4.77852 9.81343,9.30222 9.81343,11.2009 0,0.17493 0.15353,0.86954 0.34121,1.54358 0.56506,2.02959 1.01346,4.98234 1.01346,6.67382 0,2.28066 1.41759,3.39082 2.5277,1.97953 z m -21.73933,-26.0468 c 1.01381,-1.01382 0.30652,-2.8017 -1.10838,-2.8017 -0.98822,0 -1.524,0.56555 -1.524,1.60867 0,1.04312 0.53578,1.60867 1.524,1.60867 0.50971,0 0.80254,-0.10981 1.10838,-0.41564 z m 14.732,-0.33867 c 1.05019,-1.0502 0.30436,-2.80169 -1.19304,-2.80169 -1.04547,0 -1.60867,0.53542 -1.60867,1.52933 0,1.46806 1.79212,2.28194 2.80171,1.27236 z m -11.684,-4.572 c 0.98301,-0.98301 0.28854,-2.63236 -1.10838,-2.63236 -0.95319,0 -1.524,0.5708 -1.524,1.524 0,0.9532 0.57081,1.524 1.524,1.524 0.50972,0 0.80254,-0.10981 1.10838,-0.41564 z m -54.50501,46.45622 c -0.8,-0.41281 -0.96129,-0.56429 -0.84773,-0.79619 0.0771,-0.15752 0.14639,-1.27699 0.1539,-2.48772 0.0168,-2.70484 0.3396,-4.35594 1.67193,-8.55134 0.31055,-0.9779 0.66012,-2.1971 0.77683,-2.70933 0.12575,-0.55189 0.40943,-1.15795 0.69629,-1.48756 0.34309,-0.39422 0.48408,-0.73676 0.48408,-1.17607 0,-0.44279 0.13068,-0.75624 0.45752,-1.09739 0.25164,-0.26265 0.80409,-0.98782 1.22767,-1.61149 1.30959,-1.92822 2.93089,-2.57742 6.45128,-2.58322 1.10155,-0.002 1.86005,-0.0765 1.97839,-0.19486 0.12107,-0.12107 1.55573,-0.24813 3.8862,-0.34417 2.03185,-0.0837 4.70495,-0.27545 5.94023,-0.42603 2.2019,-0.26841 2.29325,-0.26623 4.65667,0.11135 1.96303,0.3136 2.66228,0.3582 3.76537,0.24016 0.74507,-0.0797 2.42147,-0.14641 3.72534,-0.14817 l 2.37066,-0.003 1.35467,0.62828 c 0.74507,0.34556 1.88807,0.75291 2.54,0.90523 2.30874,0.5394 6.35,3.31064 6.35,4.35441 0,0.0876 0.21629,0.43701 0.48065,0.77638 0.26437,0.33937 0.59841,0.84563 0.74233,1.12503 1.86815,3.62688 2.16404,4.28536 2.16741,4.82331 0.002,0.32745 0.1618,0.93826 0.35501,1.35736 0.31742,0.68851 0.35585,1.13297 0.39858,4.60864 0.0539,4.38657 0.22023,3.90433 -1.63744,4.74778 l -0.96479,0.43805 -0.24007,-0.70624 c -0.88365,-2.59939 -1.25858,-3.55794 -2.08225,-5.32337 -0.31576,-0.67675 -0.5741,-1.32547 -0.5741,-1.44159 0,-0.11612 -0.2667,-0.60715 -0.59266,-1.09119 -0.32597,-0.48403 -0.59267,-0.94702 -0.59267,-1.02887 0,-0.8188 -3.95598,-2.91254 -5.50305,-2.91254 -0.21306,0 -0.42423,-0.096 -0.46927,-0.21339 -0.19154,-0.49916 -2.42612,-0.59717 -14.17835,-0.62185 -7.34999,-0.0154 -9.94334,-0.0477 -11.09306,-0.0718 -0.48624,-0.0102 -1.09616,-0.0419 -1.63513,0.11469 -0.47031,0.13665 -0.40482,0.31688 -0.81483,0.4285 -3.15698,0.85948 -5.24357,2.0345 -6.26775,3.78944 -0.0663,0.1136 -1.21252,2.04252 -1.45121,2.44981 -0.23869,0.40729 -0.57189,1.13789 -0.74044,1.62355 -0.16856,0.48565 -0.53764,1.45451 -0.82018,2.15301 -0.28254,0.6985 -0.60694,1.63195 -0.72089,2.07433 -0.24275,0.94241 -0.15262,0.92456 -1.40514,0.27825 z m 29.18197,-18.98776 c 1.44356,1.4e-4 3.62893,0.0563 4.85638,0.1247 l 2.23171,0.12445 0.43529,-0.43529 c 0.54236,-0.54236 0.59537,-1.56997 0.11183,-2.16759 -0.46813,-0.57856 -1.83661,-0.66438 -11.9208,-0.74762 l -8.60359,-0.071 -0.41341,0.41341 c -0.57535,0.57535 -0.57428,1.638 0.002,2.2145 0.40871,0.40872 0.46581,0.41592 3.429,0.43239 1.65735,0.009 3.43246,0.0784 3.94469,0.15383 0.51224,0.0754 1.46474,0.0968 2.11667,0.0475 0.65193,-0.0493 2.36643,-0.0894 3.81,-0.0893 z m -1.95294,15.89256 c -1.03164,-0.72258 -5.40712,-0.93729 -7.36909,-0.3616 -2.92742,0.85897 -4.7425,-0.39587 -3.16631,-2.189 1.70291,-1.93729 12.08495,-1.60478 13.16954,0.42178 0.81961,1.53146 -1.1799,3.14741 -2.63414,2.12882 z M 87.489953,148.05582 c -0.681636,-0.68164 -0.215591,-5.28276 0.753088,-7.43501 0.706154,-1.56897 0.892064,-2.32594 1.099712,-4.47772 0.257571,-2.66914 2.858181,-6.71394 4.316735,-6.71394 1.285462,0 1.456428,1.35727 0.358784,2.84831 -1.88569,2.56153 -2.144571,3.14404 -2.38406,5.36436 -0.167866,1.55632 -0.344185,2.3293 -0.753191,3.302 -1.021347,2.42897 -1.045435,2.53535 -1.088266,4.80622 -0.03596,1.90675 -0.08102,2.2107 -0.357673,2.413 -0.479659,0.35073 -1.545951,0.29196 -1.945129,-0.10722 z m 123.055777,-0.67998 c -0.5302,-0.41705 -0.73492,-1.05192 -0.87123,-2.70176 -0.11224,-1.35842 -0.47023,-3.16635 -0.87639,-4.42605 -0.13841,-0.42925 -0.312,-1.89317 -0.38576,-3.25316 -0.13475,-2.48453 -0.56058,-3.84038 -1.20613,-3.84038 -0.3483,0 -0.84426,-0.69633 -0.84426,-1.18534 0,-1.79738 2.28536,-1.55544 3.62062,0.38329 l 0.64948,0.94302 0.14625,2.61545 c 0.0804,1.4385 0.22919,2.83365 0.33059,3.10033 0.28958,0.76164 1.00975,4.55865 1.01639,5.3588 0.003,0.39735 0.11491,0.91295 0.24801,1.14578 0.83554,1.46162 -0.54624,2.86792 -1.82757,1.86002 z M 77.606784,134.67582 c -1.060492,-0.93113 -1.468211,-2.3299 -1.583621,-5.43295 l -0.0992,-2.66712 0.520634,-0.52063 c 1.51004,-1.51004 2.657118,-0.56233 2.682247,2.21606 0.02177,2.40653 0.204143,3.23003 0.912827,4.1218 1.483956,1.86731 -0.638207,3.85859 -2.432892,2.28284 z m 145.834276,-1.50585 c -0.37281,-0.30138 -0.40793,-0.48128 -0.52072,-2.667 -0.0665,-1.2891 -0.16913,-2.70187 -0.22802,-3.13948 -0.25028,-1.85975 2.16719,-2.3669 3.05928,-0.6418 1.47921,2.86047 -0.36885,8.01802 -2.31054,6.44828 z M 204.8615,122.17136 c -1.033,-1.03301 -0.36774,-1.83292 1.84555,-2.2191 0.97437,-0.17001 2.05487,-0.43136 2.40114,-0.58078 1.48663,-0.6415 3.01111,-0.1953 3.01111,0.88131 0,0.69574 -0.31871,1.01854 -1.27,1.28634 -0.46567,0.1311 -1.26577,0.36206 -1.778,0.51326 -1.66039,0.4901 -3.7788,0.54997 -4.2098,0.11897 z M 87.123494,121.31512 c -1.594363,-0.6235 -2.342874,-1.31455 -2.342874,-2.163 0,-1.20072 1.137112,-1.58779 2.304703,-0.78451 0.819973,0.56412 1.677722,0.88443 2.394297,0.89411 0.695752,0.009 1.227667,0.52619 1.227667,1.19277 0,1.16318 -1.741011,1.58128 -3.583793,0.86063 z m 115.331066,-2.58016 c -0.19976,-0.17062 -0.24878,-0.4512 -0.19526,-1.1177 0.0839,-1.04442 -0.0374,-0.9925 2.6427,-1.13101 2.19125,-0.11324 3.67249,-0.77235 5.61909,-2.50031 1.23976,-1.1005 1.97596,-1.28171 2.61421,-0.64345 1.02445,1.02444 -0.65991,3.04531 -3.84463,4.61273 l -1.73731,0.85505 -2.41603,0.0762 c -1.86689,0.0589 -2.47666,0.0245 -2.68277,-0.15155 z M 91.339081,117.73882 c -3.089468,-0.51969 -5.997343,-2.95011 -5.43677,-4.5441 0.374012,-1.06349 1.603489,-0.88671 2.804021,0.40319 1.044936,1.12272 2.053282,1.54347 4.442769,1.85386 1.823249,0.23683 2.130186,0.42555 2.130186,1.30975 0,1.08481 -1.334005,1.41569 -3.940206,0.9773 z m -30.265129,-4.42043 c -1.984444,-0.54538 -2.85572,-1.48046 -3.304841,-3.54685 -0.798688,-3.67474 -0.93819,-4.44283 -1.089078,-5.99639 -0.206995,-2.13125 -1.189238,-5.983268 -2.097573,-8.225945 -0.248146,-0.612674 -0.451175,-1.224424 -0.451175,-1.359444 0,-0.135021 -0.2667,-0.802002 -0.592667,-1.48218 -0.325966,-0.680178 -0.592666,-1.329232 -0.592666,-1.442342 0,-0.457129 -1.608369,-2.784265 -2.478138,-3.585598 -0.510718,-0.470533 -1.019317,-1.01677 -1.13022,-1.213859 -0.322101,-0.572418 -1.165124,-1.841625 -1.852642,-2.789233 -0.34925,-0.481372 -0.635,-0.944948 -0.635,-1.030168 0,-0.08522 -0.157616,-0.376293 -0.350255,-0.646832 -1.008569,-1.416403 -2.323641,-4.433212 -3.203858,-7.349725 -0.168647,-0.5588 -0.502422,-1.5875 -0.74172,-2.286 -1.463418,-4.271624 -1.382548,-7.591338 0.252479,-10.364349 0.268045,-0.454605 0.487535,-0.880351 0.487756,-0.946103 5.08e-4,-0.131379 1.08686,-1.808466 1.777699,-2.744214 4.544599,-6.155687 6.761844,-7.659782 13.817254,-9.373088 2.287427,-0.555469 4.155184,-1.106155 4.978645,-1.467891 0.186267,-0.08183 1.100667,-0.466552 2.032,-0.854947 0.931334,-0.388397 1.998134,-0.843141 2.370667,-1.010543 0.372533,-0.167401 1.172634,-0.527488 1.778,-0.800193 0.605367,-0.272704 2.180788,-0.928903 3.500938,-1.45822 2.034379,-0.815689 3.697522,-1.413832 9.961063,-3.582457 0.648316,-0.224467 0.661805,-0.222121 0.314892,0.05475 -0.447738,0.357334 -4.039525,4.50715 -4.670945,5.396635 -1.098586,1.547586 -4.370448,8.28944 -4.365991,8.99637 6.77e-4,0.120126 -0.162421,0.539226 -0.36262,0.931333 -0.371746,0.728098 -1.570212,3.961746 -1.864576,5.03092 -0.719086,2.61182 -2.193981,7.436428 -3.105937,10.16 -2.182456,6.517938 -3.014957,12.855875 -3.291861,25.061333 -0.128304,5.65544 -0.238509,7.74062 -0.514604,9.73666 -0.193234,1.397 -0.426598,3.3782 -0.518583,4.40267 -0.306366,3.41205 -1.468891,4.49704 -4.056443,3.7859 z m -2.032,-14.538566 c 0.186267,-0.186267 0.338667,-0.523105 0.338667,-0.74853 0,-5.683592 1.681294,-16.942572 3.729919,-24.977848 0.556278,-2.181873 1.011414,-4.182123 1.011414,-4.445 0,-1.007635 -1.352895,-1.538087 -2.190731,-0.858955 -1.891882,1.533518 -6.211098,29.571171 -4.776462,31.005807 0.473404,0.473403 1.425936,0.485783 1.887193,0.02453 z M 52.268618,80.830491 c 0.462238,-0.462238 0.432046,-0.928768 -0.259967,-4.017083 -1.596026,-7.122747 -1.468127,-11.688189 0.494885,-17.66531 1.370784,-4.173859 1.514284,-5.016405 0.950416,-5.580274 -1.464436,-1.464435 -2.736698,0.748472 -4.332275,7.535334 -1.252227,5.326402 -0.946421,12.635441 0.785104,18.764661 0.353288,1.250571 1.575694,1.748815 2.361837,0.962672 z m 7.759198,-25.816252 c 0.790207,-0.713904 0.910309,-0.760721 3.890034,-1.516368 1.965135,-0.498349 2.561271,-0.5859 3.395645,-0.49869 1.771535,0.185163 2.619895,-1.435305 1.393483,-2.661715 -1.175252,-1.175253 -8.789144,0.152019 -10.569144,1.842436 -2.099075,1.993438 -0.249477,4.76721 1.889982,2.834337 z M 237.44215,113.25236 c -1.21629,-0.46289 -1.39001,-0.75284 -1.6025,-2.67471 -0.10475,-0.94737 -0.34289,-2.9798 -0.52919,-4.5165 -0.59385,-4.89844 -0.6638,-5.93046 -0.67151,-9.905993 -0.0163,-8.443187 -0.73108,-16.44412 -1.86815,-20.912666 -0.75409,-2.963437 -0.91961,-3.55078 -1.43166,-5.08 -0.70568,-2.107546 -1.60479,-4.993178 -2.37422,-7.62 -0.98187,-3.352029 -1.58307,-5.111274 -2.39194,-6.999273 -0.31259,-0.729634 -0.56835,-1.433364 -0.56835,-1.563844 0,-0.130482 -0.2976,-0.867009 -0.66135,-1.636727 -0.36373,-0.76972 -0.99062,-2.123389 -1.39309,-3.008156 -1.48761,-3.270355 -3.33127,-5.889061 -6.12262,-8.696475 -1.06615,-1.07229 -1.13682,-1.072698 1.99639,0.01151 2.7906,0.965659 4.38679,1.393939 5.21813,1.400092 0.59932,0.0044 1.12007,0.261761 1.55521,0.768484 0.18626,0.216913 1.17686,0.735615 2.20133,1.152674 1.02447,0.417058 2.39607,0.999241 3.048,1.293741 0.65193,0.294501 1.33773,0.602476 1.524,0.684389 0.18627,0.08192 0.79587,0.353365 1.35467,0.603223 1.9664,0.879248 4.66919,1.761995 7.48458,2.444515 5.96949,1.447148 7.78747,2.501635 11.40249,6.613838 4.76832,5.424109 6.4976,9.868303 5.42583,13.944085 -0.19374,0.736681 -0.35223,1.49981 -0.35223,1.695841 0,0.196032 -0.1524,0.640766 -0.33867,0.988299 -0.18627,0.347534 -0.33867,0.725921 -0.33867,0.840863 0,0.11494 -0.25683,0.896266 -0.57074,1.73628 -0.31391,0.840013 -0.69381,1.915395 -0.84421,2.389738 -0.4628,1.459635 -1.94117,4.40572 -2.87413,5.72756 -0.20264,0.287099 -0.44445,0.653801 -0.53734,0.814891 -0.65649,1.13836 -2.04277,2.964805 -3.12402,4.115931 -0.70302,0.748453 -1.47914,1.777153 -1.72469,2.286 -1.09325,2.265455 -1.6702,3.572375 -1.6702,3.783355 0,0.125349 -0.23277,0.79084 -0.51725,1.478865 -0.28448,0.688026 -0.67508,1.822456 -0.868,2.520956 -0.19292,0.6985 -0.49811,1.803407 -0.67818,2.455334 -0.18009,0.65193 -0.3968,1.88668 -0.48157,2.74387 -0.25242,2.55219 -1.30063,7.47203 -1.75839,8.25315 -0.95594,1.63118 -3.24937,2.5018 -4.91776,1.86685 z m 5.83206,-15.317902 c 1.2698,-0.679584 1.61493,-9.242672 0.53238,-13.209301 -1.28105,-4.69405 -1.70901,-6.491095 -2.0566,-8.636 -0.20374,-1.2573 -0.51511,-2.619535 -0.69191,-3.027192 -0.17679,-0.407655 -0.32145,-0.960105 -0.32145,-1.227666 0,-0.703125 -0.53623,-1.163808 -1.35467,-1.163808 -1.38699,0 -1.75083,1.268957 -0.94296,3.288714 0.22643,0.566107 0.61036,2.227114 0.85317,3.691128 0.2428,1.464014 0.71445,3.635713 1.04809,4.826 1.68745,6.019954 1.88396,7.829101 1.26092,11.60817 -0.59939,3.635597 -0.095,4.796193 1.67303,3.849955 z m 6.73427,-23.630231 c 0.41784,-0.292678 1.37908,-3.103316 1.84106,-5.383295 1.13848,-5.618617 -1.3325,-15.014441 -3.9486,-15.014441 -1.45358,0 -1.64929,1.39574 -0.46846,3.340732 2.3801,3.920341 2.70811,8.463986 0.99464,13.778033 -0.95727,2.968823 -0.20445,4.529799 1.58136,3.278971 z m -6.97814,-19.12004 c 0.67349,-0.673503 0.58784,-1.763442 -0.20783,-2.644138 -1.79046,-1.981821 -9.55634,-3.55048 -10.90423,-2.202583 -1.23573,1.235729 -0.38131,2.837292 1.42453,2.670151 1.00579,-0.09309 1.91616,0.07866 5.73882,1.082704 0.34705,0.09115 0.98033,0.468083 1.4073,0.837619 0.96327,0.833703 1.87228,0.92536 2.54141,0.256247 z M 98.919958,108.15651 c -0.18627,-0.0367 -0.75777,-0.14572 -1.270002,-0.24231 -1.179314,-0.22238 -2.909488,-0.92832 -3.894669,-1.58909 -0.812683,-0.54508 -3.217334,-2.77226 -3.217334,-2.97988 0,-0.0683 -0.290973,-0.57098 -0.646607,-1.11711 -1.172847,-1.80108 -1.234595,-3.747037 -0.180842,-5.699112 0.211543,-0.391885 0.59234,-1.131618 0.846213,-1.643851 0.633287,-1.277764 1.107337,-1.86863 0.655407,-0.816913 -3.080997,7.169996 4.202391,14.910426 10.664996,11.334236 5.16597,-2.85869 5.53351,-12.015831 0.61029,-15.205172 -1.49711,-0.969847 -1.50641,-0.92115 0.15788,-0.826543 2.14135,0.121723 2.62467,0.238037 2.62467,0.631638 0,0.178336 0.15867,0.635258 0.35259,1.015384 0.3267,0.640376 0.54947,1.239674 1.46905,3.952037 0.92609,2.73155 0.83914,4.500817 -0.31428,6.394876 -0.27025,0.44378 -0.49136,0.8831 -0.49136,0.97627 0,0.17679 -0.52061,1.01807 -2.30475,3.72439 -0.58481,0.88708 -1.11373,1.74433 -1.17539,1.905 -0.10829,0.28222 -2.75432,0.40898 -3.885862,0.18615 z m 98.975342,-0.0938 c 0,-0.13632 -0.22649,-0.54718 -0.5033,-0.91302 -0.27681,-0.36584 -0.50541,-0.7274 -0.508,-0.80346 -0.003,-0.0761 -0.20296,-0.39822 -0.44526,-0.7159 -3.52213,-4.61775 -4.15847,-7.72107 -2.42783,-11.840123 0.27374,-0.651527 0.49772,-1.283462 0.49772,-1.404299 0,-0.120836 0.2286,-0.672556 0.508,-1.226044 0.2794,-0.553488 0.508,-1.113291 0.508,-1.244004 0,-0.300948 0.67821,-0.438099 2.70933,-0.547888 l 1.60867,-0.08696 -0.68536,0.389091 c -1.33767,0.759405 -3.29397,2.729785 -3.29397,3.317659 0,0.08975 -0.20955,0.61053 -0.46567,1.157302 -0.60439,1.290268 -0.69601,5.164296 -0.15369,6.497466 0.17049,0.4191 0.39959,0.99666 0.50912,1.28348 1.31557,3.44511 6.36834,5.3732 9.83104,3.75143 1.06339,-0.49804 3.4872,-2.76335 3.4872,-3.25916 0,-0.14466 0.18342,-0.62497 0.40758,-1.06736 0.93802,-1.85107 1.03681,-5.245562 0.2055,-7.061347 -0.23671,-0.517057 -0.35243,-0.891926 -0.25715,-0.83304 0.56297,0.347938 2.3534,4.867387 2.3534,5.940526 0,0.759991 -0.50827,2.211031 -1.02374,2.922601 -0.27515,0.37983 -0.50065,0.74841 -0.50112,0.81907 -0.003,0.50601 -3.1184,3.19733 -4.54008,3.92262 -1.77816,0.90715 -7.82039,1.68082 -7.82039,1.00136 z M 139.08364,89.838225 c -0.25166,-0.26268 -0.45501,-0.668698 -0.45501,-0.908497 0,-0.238461 -0.14563,-0.618692 -0.32361,-0.844958 -2.44616,-3.109797 -1.14994,-7.12952 1.36224,-4.224415 2.71656,3.141464 3.00908,6.452802 0.57003,6.452802 -0.54441,0 -0.79908,-0.104842 -1.15365,-0.474932 z m 20.15067,0 c -0.71097,-0.742092 -0.66514,-2.391571 0.098,-3.527733 0.30417,-0.452833 0.66184,-1.036425 0.79483,-1.29687 0.9136,-1.789219 2.30163,-2.355732 3.27713,-1.337532 0.83189,0.868309 0.58837,2.038995 -0.8586,4.127578 -0.30198,0.435879 -0.54905,0.96511 -0.54905,1.176067 0,0.664869 -0.80656,1.333422 -1.60867,1.333422 -0.54441,0 -0.79908,-0.104842 -1.15365,-0.474932 z m 57.30989,-1.345401 c -0.19469,-0.162983 -0.62903,-0.829733 -0.96524,-1.481667 -0.33621,-0.651933 -0.89022,-1.559157 -1.23114,-2.016052 -0.34091,-0.456895 -0.77226,-1.043246 -0.95852,-1.302998 -1.10104,-1.535433 -3.4216,-2.598327 -7.0134,-3.212373 -1.07296,-0.183434 -2.21989,-0.402888 -2.54874,-0.487675 -0.32883,-0.08479 -1.58846,-0.23877 -2.7992,-0.342184 -1.21073,-0.103415 -2.32198,-0.224084 -2.46944,-0.268156 -0.14745,-0.04407 -0.59517,0.03527 -0.99495,0.176321 -1.02961,0.363273 -1.96445,0.330947 -2.37761,-0.08222 -1.27621,-1.276206 0.73,-2.689116 3.53402,-2.48891 3.22306,0.230125 5.59303,0.492128 6.37198,0.704426 0.46567,0.126916 1.26577,0.283034 1.778,0.34693 3.76337,0.469448 7.43533,2.161627 8.57308,3.950811 0.17431,0.274105 0.62516,0.906606 1.00191,1.405558 2.47977,3.284186 2.5551,7.154261 0.0993,5.098185 z m -132.102247,-2.921 c -1.850346,-1.850346 3.162138,-5.655544 9.590555,-7.280612 3.576538,-0.904131 5.64945,-0.52472 5.64945,1.034038 0,0.924952 -0.49862,1.189404 -2.005632,1.063723 -3.097349,-0.25831 -10.421216,2.846984 -11.06409,4.691134 -0.302079,0.866546 -1.519601,1.142399 -2.170283,0.491717 z M 230.62675,82.078977 c -0.74281,-1.772402 -1.95795,-3.44982 -2.49909,-3.44982 -0.1514,0 -0.35255,-0.558114 -0.59498,-1.651 -0.20144,-0.90805 -0.62765,-2.653424 -0.94715,-3.87861 -0.3195,-1.225186 -0.58004,-2.330086 -0.57899,-2.455333 0.002,-0.289211 -1.29005,-4.420975 -2.29597,-7.339723 -1.15756,-3.358683 -4.26955,-9.893344 -5.74677,-12.067274 -0.2342,-0.344671 -0.42584,-0.68844 -0.42584,-0.76393 0,-0.07549 -0.3048,-0.549849 -0.67733,-1.054129 -0.37253,-0.50428 -0.67733,-0.958787 -0.67733,-1.010018 0,-0.05123 -0.43358,-0.721233 -0.96351,-1.488897 -0.52993,-0.767664 -1.17102,-1.701812 -1.42465,-2.075886 -0.25363,-0.374072 -0.62015,-0.824032 -0.8145,-0.99991 -0.19434,-0.175878 -0.35334,-0.412938 -0.35334,-0.526799 0,-0.113863 -0.12616,-0.311602 -0.28035,-0.439423 -0.1542,-0.12782 -0.70511,-0.76462 -1.22423,-1.415111 -0.51914,-0.65049 -1.91877,-2.151 -3.1103,-3.334466 l -2.1664,-2.151757 1.73963,0.586778 c 0.9568,0.322729 2.0254,0.664127 2.37465,0.758661 0.37082,0.100376 0.635,0.276288 0.635,0.422849 0,0.138032 1.27635,1.524418 2.83633,3.080859 3.5412,3.533152 6.06032,6.453095 6.42733,7.449979 0.06,0.163062 0.40058,0.761909 0.75676,1.330772 0.35615,0.568866 0.64758,1.118693 0.64758,1.221839 0,0.103146 0.2667,0.672741 0.59266,1.265763 0.32597,0.593024 0.59267,1.208283 0.59267,1.367241 0,0.15896 0.16314,0.608803 0.36254,0.999653 0.19939,0.390848 0.57399,1.283164 0.83243,1.98292 0.25845,0.699758 0.62345,1.653286 0.81112,2.118953 0.34375,0.852952 1.00376,2.956924 2.15133,6.858 0.34246,1.164166 0.88064,2.848174 1.19595,3.742239 0.31532,0.894067 0.5733,1.72473 0.5733,1.845918 0,0.12119 0.29631,1.104182 0.65848,2.184427 0.36217,1.080245 0.74869,2.421282 0.85896,2.980082 0.11026,0.5588 0.38935,1.921026 0.6202,3.027169 0.23086,1.106143 0.39677,2.315662 0.36871,2.687819 l -0.051,0.676651 z M 69.880764,81.914045 c 8.47e-4,-0.269989 0.231013,-1.595788 0.511553,-2.946221 0.280541,-1.350433 0.578779,-2.836333 0.662754,-3.302 0.08397,-0.465667 0.387175,-1.507317 0.67378,-2.31478 0.286605,-0.807462 0.520504,-1.569462 0.519774,-1.693333 -6.77e-4,-0.123871 0.295307,-1.06342 0.65786,-2.087887 0.362555,-1.024466 0.939429,-2.815166 1.281947,-3.979333 1.248704,-4.244176 1.821141,-6.037336 2.324447,-7.281333 0.282604,-0.6985 0.57276,-1.4986 0.644791,-1.778 0.07203,-0.2794 0.368803,-1.0033 0.659492,-1.608667 0.290688,-0.605367 0.528584,-1.184678 0.528657,-1.287357 3.39e-4,-0.436383 2.297031,-4.941387 3.132801,-6.144977 0.906167,-1.304968 4.067964,-4.825533 6.343193,-7.062949 1.221527,-1.201227 2.261646,-2.344388 2.311376,-2.540359 0.07286,-0.287103 0.523845,-0.497971 2.321924,-1.085659 1.22733,-0.401142 2.307707,-0.765422 2.400841,-0.809512 0.09313,-0.04409 -0.167193,0.215858 -0.578502,0.577659 -1.739846,1.530426 -5.086078,5.201271 -6.568178,7.20535 -1.464231,1.979916 -2.827051,3.911991 -3.182654,4.512059 -0.09313,0.15716 -0.416983,0.647871 -0.719667,1.09047 -0.302683,0.4426 -0.550333,0.863061 -0.550333,0.934359 0,0.0713 -0.191626,0.411638 -0.425838,0.756309 -0.23421,0.344671 -0.641568,1.029109 -0.905239,1.520974 -1.527571,2.849595 -1.904954,3.560387 -2.029037,3.821633 -0.07576,0.1595 -0.40935,0.8615 -0.741316,1.56 -1.34313,2.826114 -4.38077,11.354474 -4.360628,12.242722 0.0025,0.111802 -0.26005,1.193878 -0.583523,2.404611 -0.323474,1.210734 -0.763698,3.023095 -0.978276,4.02747 -0.375942,1.759658 -0.411178,1.836713 -0.967948,2.116666 -0.388935,0.195564 -0.740987,0.594958 -1.077029,1.221864 -1.387394,2.588265 -1.308653,2.471979 -1.307022,1.930221 z m 64.683866,0.101779 c -0.20093,-0.200922 -0.33867,-0.564444 -0.33867,-0.893777 0,-0.305311 -0.25441,-1.086361 -0.56536,-1.735666 -0.31095,-0.649307 -0.70267,-1.599657 -0.8705,-2.11189 -0.3297,-1.006343 -0.68294,-1.591681 -1.55866,-2.582821 -0.97782,-1.106707 -0.59092,-2.327846 0.73755,-2.327846 1.0554,0 2.56791,1.918638 3.2705,4.148667 0.11736,0.372533 0.47074,1.206159 0.78527,1.852503 1.02026,2.096607 0.7292,3.989497 -0.61347,3.989497 -0.28222,0 -0.65852,-0.150519 -0.84666,-0.338667 z m 30.29101,-2.728989 c -1.39422,-1.394222 2.92421,-8.277677 5.19311,-8.277677 1.61713,0 1.6955,1.347258 0.16181,2.781726 -1.38843,1.298602 -2.49084,2.868881 -3.06027,4.359079 -0.58302,1.525718 -1.46756,1.963963 -2.29465,1.136872 z M 148.43675,65.069281 c -0.31647,-0.316467 -0.3403,-0.475439 -0.23681,-1.57979 0.20814,-2.221194 -1.28738,-5.984982 -3.71285,-9.344118 -3.62017,-5.013728 -4.5357,-10.737548 -1.71749,-10.737548 1.17441,0 1.50748,0.746914 0.98679,2.212948 -0.25474,0.717218 -0.26229,0.899022 -0.0607,1.462059 0.54204,1.514031 2.07903,4.454539 2.87887,5.507717 3.88416,5.114439 5.52582,12.830609 2.72978,12.830609 -0.29637,0 -0.66534,-0.149652 -0.86757,-0.351877 z m -44.01346,-4.760276 c -0.32597,-0.09402 -2.07857,-0.505542 -3.89467,-0.914498 -3.484734,-0.784706 -3.725334,-0.90064 -3.725334,-1.795047 0,-1.224229 0.90998,-1.389663 4.018974,-0.730645 5.46542,1.158513 5.9717,1.368349 5.9717,2.475101 0,1.010377 -0.91799,1.384084 -2.37067,0.965089 z m 87.06181,-0.790042 c -1.71416,-1.71417 1.16985,-2.602756 7.54673,-2.325197 4.85719,0.211413 5.29813,0.335124 5.29813,1.486423 0,1.046301 -0.46692,1.217834 -2.85977,1.050603 -2.6377,-0.184341 -5.27754,-0.181933 -7.74143,0.0071 -1.79637,0.137793 -1.89677,0.127997 -2.24366,-0.218891 z"
       id="path331"
       sodipodi:nodetypes="cssssssssssssscssssccscsssssssssssssccccsssssssscsssccscssssssssssssccsssssssssssssssssssssssssscsscsssssssssssssssssssscssssssssssssssssscsssscsssscsssssscscscscsccsssssssssssssscsssssssscsssssccssssccssscssssssssssssssssccsccssscsccssssssssssssssssssssssssssccscsssscsssssssssssssssssssscsscssssscsccssssssssssssssssssssscsssssssssscssssssssssssssssssssssssssssssscsssssssssssssssssssssssscsssssssssssssssssssssssssssssssssssssssssssssssssssssssccssssscssssssscsssscssssssssssssssssssssssssssssssscsssssssssssscsssssssssssscssssssssssssssssssscscssscssssscsssssssssssssscsssscsssssssssssssssssssscsssssssssssssssss" /></g></svg>
