<?xml version="1.0" encoding="UTF-8" standalone="no"?>
<!-- Created with Inkscape (http://www.inkscape.org/) -->

<svg
   width="210mm"
   height="297mm"
   viewBox="0 0 210 297"
   version="1.1"
   id="svg5"
   xml:space="preserve"
   inkscape:version="1.2.2 (b0a8486541, 2022-12-01)"
   sodipodi:docname="coldbootpetr.svg"
   xmlns:inkscape="http://www.inkscape.org/namespaces/inkscape"
   xmlns:sodipodi="http://sodipodi.sourceforge.net/DTD/sodipodi-0.dtd"
   xmlns="http://www.w3.org/2000/svg"
   xmlns:svg="http://www.w3.org/2000/svg"><sodipodi:namedview
     id="namedview7"
     pagecolor="#a7a7a7"
     bordercolor="#000000"
     borderopacity="0.25"
     inkscape:showpageshadow="2"
     inkscape:pageopacity="0.28627451"
     inkscape:pagecheckerboard="0"
     inkscape:deskcolor="#d1d1d1"
     inkscape:document-units="mm"
     showgrid="false"
     inkscape:zoom="0.70728116"
     inkscape:cx="424.15947"
     inkscape:cy="534.44093"
     inkscape:window-width="1920"
     inkscape:window-height="988"
     inkscape:window-x="0"
     inkscape:window-y="24"
     inkscape:window-maximized="1"
     inkscape:current-layer="layer2" /><defs
     id="defs2" /><g
     inkscape:groupmode="layer"
     id="layer2"
     inkscape:label="White"><path
       style="fill:#ffffff;stroke-width:0.264583"
       d="m 92.143178,21.287409 c -16.20717,10.27272 -19.181291,20.887522 -19.181291,20.887522 0,0 -6.636217,13.894256 -8.528472,28.074784 -1.55306,11.638604 -16.971782,19.947395 -16.971782,19.947395 0,0 1.272339,-1.236144 -15.271707,11.07938 -18.073314,13.45392 -8.283573,25.2202 -8.283573,25.2202 0,0 13.716082,9.95993 3.874898,30.25222 -11.155972,23.00335 16.425438,35.01563 16.425438,35.01563 0,0 10.145583,10.45911 36.816843,10.43943 41.620138,-0.0307 59.313378,-0.10458 87.348888,-3.69014 27.69776,-3.54237 32.30913,-11.24509 32.30913,-11.24509 0,0 8.28372,-8.76168 -5.93581,-33.51822 -12.72305,-22.15112 -21.26162,-28.6474 -21.26162,-28.6474 0,0 -14.09393,-18.25113 -17.43204,-31.155237 -3.33811,-12.90411 -6.8393,-43.078886 -6.8393,-43.078886 0,0 -3.06493,-19.109529 -7.00401,-24.017952 -3.93908,-4.908423 -13.84605,-9.391262 -24.74158,-10.54087 -10.89552,-1.149609 -25.324012,4.977234 -25.324012,4.977234 z"
       id="path558"
       sodipodi:nodetypes="ccscscscsscscscssc" /></g><g
     inkscape:label="Black"
     inkscape:groupmode="layer"
     id="layer1"><path
       style="fill:#000000;stroke-width:1"
       d="m 102.57115,191.7249 c -0.0916,-0.14821 -0.26388,-0.20931 -0.38286,-0.13577 -0.11898,0.0735 -0.37492,-0.0574 -0.56875,-0.29096 -0.53558,-0.64533 -9.805921,-9.43957 -12.795342,-12.1382 -1.450224,-1.30916 -5.705541,-5.33921 -9.456261,-8.95569 l -6.819496,-6.5754 -1.804649,1.33784 c -2.135558,1.58316 -3.678875,2.28689 -5.897549,2.68921 l -1.629712,0.29553 -1.091324,-0.18155 c -0.600228,-0.0999 -1.7365,-0.42153 -2.525051,-0.71483 l -1.433727,-0.53329 -1.172035,-1.08035 -1.172033,-1.08034 -0.994825,-1.99279 c -1.742208,-3.48991 -3.153635,-8.67426 -4.000077,-14.69279 l -0.334899,-2.38125 -0.02101,-5.55625 -0.02101,-5.55625 0.343562,-2.91042 c 0.426889,-3.61634 1.076229,-7.66337 1.34703,-8.39541 l 0.204412,-0.55258 -1.257768,-1.21454 -1.257766,-1.21455 -0.18129,-0.72701 c -0.09971,-0.39986 -0.11449,-0.90109 -0.03285,-1.11385 0.154607,-0.4029 1.667188,-1.55083 3.024124,-2.29507 l 0.787215,-0.43177 0.844177,-2.34636 c 0.464304,-1.29049 1.461426,-3.53698 2.215838,-4.99219 l 1.371653,-2.64583 h 0.661458 0.661459 l 0.08351,0.58741 0.08351,0.58741 -0.928526,1.66155 c -0.510691,0.91385 -1.479886,3.08879 -2.153767,4.83321 -1.426565,3.69282 -1.40372,3.65962 -3.22756,4.68894 -0.768789,0.43388 -1.397799,0.93382 -1.397799,1.11098 0,1.45029 7.100356,5.10089 15.374478,7.90468 l 4.072398,1.37998 v 0.66146 0.66146 l -0.623737,0.0883 -0.623737,0.0883 -3.477305,-1.12212 c -4.130545,-1.33291 -8.889013,-3.30611 -10.782567,-4.47123 l -1.362244,-0.83819 -0.214072,0.21708 c -0.27209,0.27591 -0.901526,4.31377 -1.312408,8.41916 l -0.317767,3.175 0.122637,6.35 0.122637,6.35 0.698998,3.61654 c 0.817951,4.23199 1.735555,7.28184 2.985508,9.92296 l 0.898181,1.89784 1.172593,1.03215 1.172594,1.03216 1.140135,0.34549 c 0.627075,0.19002 1.870876,0.33464 2.764004,0.32139 l 1.62387,-0.0241 1.346115,-0.51149 c 3.134836,-1.19114 6.917148,-4.70552 9.898915,-9.19768 3.103573,-4.67568 7.293459,-12.46943 9.182512,-17.08073 0.338355,-0.82595 0.864833,-1.80327 1.169956,-2.17184 l 0.554765,-0.67012 1.455209,0.39313 1.455208,0.39313 1.058333,-0.16571 c 1.427764,-0.22355 3.186883,-1.38166 5.023612,-3.30728 l 1.523744,-1.59748 -0.578144,-0.61541 c -0.816504,-0.86913 -3.866541,-2.21533 -5.57685,-2.46147 l -1.444686,-0.20791 -0.091,-0.47252 c -0.05005,-0.25988 0.06304,-0.65813 0.251311,-0.88498 l 0.34231,-0.41246 1.200891,0.12674 c 1.587992,0.16759 3.944464,1.08725 5.543995,2.16365 l 1.292913,0.87007 0.259032,-0.56851 c 0.142468,-0.31269 0.414221,-1.26199 0.603898,-2.10955 l 0.344869,-1.54104 -0.542108,-0.43457 c -1.873075,-1.50152 -2.480968,-1.87139 -3.758319,-2.28672 -0.783949,-0.2549 -2.034106,-0.53776 -2.778125,-0.62857 l -1.352761,-0.16511 -0.08929,-0.63154 -0.08929,-0.63153 0.353878,-0.22431 c 0.911296,-0.57763 5.127471,0.34219 6.902315,1.50584 l 0.992188,0.65051 -2.1e-4,-0.33449 c -1.13e-4,-0.18396 -0.340442,-1.05366 -0.756285,-1.93266 l -0.756073,-1.59818 -1.249122,-1.09952 -1.249119,-1.09952 -1.322064,-0.43912 -1.322065,-0.43912 -1.462802,0.18277 c -2.217322,0.27703 -3.981035,0.86831 -6.16535,2.06692 l -1.979965,1.08646 -1.727557,1.73333 c -2.382202,2.39016 -4.966814,5.91605 -6.938817,9.46584 -0.913659,1.64466 -2.239753,4.03048 -2.946876,5.30181 -1.296207,2.33044 -4.770782,7.44163 -7.652144,11.25652 l -1.560317,2.06583 -0.571765,-0.0815 -0.571762,-0.0815 -0.08595,-0.60604 -0.08596,-0.60604 1.431226,-1.9075 c 3.20122,-4.26651 6.215893,-8.67294 7.33964,-10.72806 3.453693,-6.31616 4.880324,-8.74628 6.257488,-10.659 1.506395,-2.09219 4.607121,-5.43109 6.504845,-7.00449 l 0.988375,-0.81945 -0.661853,-1.69409 c -0.850553,-2.17709 -2.189355,-4.12652 -4.423751,-6.44141 -0.982266,-1.01766 -1.785938,-1.98848 -1.785938,-2.1574 0,-0.54946 -2.72684,-1.37754 -6.515115,-1.97848 l -2.083843,-0.33057 -4.101042,-0.0202 -4.101041,-0.0202 -2.195002,0.47978 c -9.083332,1.98541 -15.322093,6.72916 -16.460603,12.51609 l -0.316246,1.60746 0.411311,2.78949 0.411313,2.78949 2.015578,5.11147 c 1.108569,2.81132 2.190734,5.76982 2.404811,6.57445 l 0.389231,1.46297 -0.0021,2.64583 -0.0021,2.64584 -0.417452,1.5875 c -0.953336,3.62537 -3.995174,8.41943 -6.041319,9.52135 l -0.89808,0.48365 -0.431422,-0.16555 c -0.664242,-0.2549 -0.538078,-0.55919 0.919321,-2.21729 3.620048,-4.1186 4.99925,-7.43357 4.99925,-12.01596 0,-2.75614 -0.234733,-3.6337 -2.569004,-9.60429 -2.145845,-5.48863 -2.613935,-7.17172 -2.876685,-10.3436 l -0.175337,-2.11667 0.433605,-1.69196 c 0.576236,-2.24852 1.576154,-4.0367 3.302905,-5.90665 l 1.422778,-1.54078 2.170676,-1.44432 c 3.725019,-2.47854 7.114659,-3.7895 12.277061,-4.7482 l 2.212041,-0.41079 h 2.456278 c 4.750427,0 10.486433,0.86536 13.361702,2.01582 l 1.114057,0.44575 0.760151,-0.44903 0.760153,-0.44903 0.51815,0.2773 c 0.953063,0.51007 3.746672,3.08826 5.477764,5.05538 0.942239,1.07071 2.043443,2.08562 2.447118,2.25536 0.71774,0.30178 2.41478,2.32059 2.415064,2.87296 l 1.4e-4,0.27861 2.05038,0.0161 2.050378,0.0161 1.446073,0.7448 c 0.79534,0.40964 1.886228,1.09853 2.424197,1.53085 l 0.978127,0.78604 0.808695,1.51727 c 2.04703,3.84062 2.12046,8.33817 0.19791,12.12113 l -0.587179,1.15538 0.956389,1.90403 c 0.52602,1.04722 1.02856,2.18077 1.11677,2.51899 l 0.16037,0.61495 0.5594,0.14628 0.5594,0.14629 0.38628,0.74698 c 0.57051,1.10325 0.48607,1.44622 -0.57046,2.3171 l -0.95673,0.78862 0.1786,0.28898 c 0.0982,0.15893 0.56983,0.28897 1.04802,0.28897 h 0.86941 l 0.47352,0.52323 0.47352,0.52323 -0.15928,1.13042 -0.15927,1.13042 0.66356,2.01758 0.66357,2.01758 2.83352,0.02 2.8335,0.02 2.38125,0.41954 2.38125,0.41954 1.64938,0.7681 c 2.0668,0.96251 3.38281,2.02749 4.56833,3.69691 0.50932,0.71722 1.11434,1.35444 1.34448,1.41605 l 0.41844,0.11201 0.34451,1.16091 0.34452,1.16091 2.58242,2.38125 c 1.42034,1.30969 2.66971,2.61198 2.77639,2.89399 l 0.19396,0.51274 -0.59209,0.47945 -0.59209,0.47944 h -3.10875 c -1.70982,0 -3.65052,0.0743 -4.31267,0.16502 l -1.20391,0.16501 -1.30785,-1.22335 c -1.4078,-1.31681 -1.64986,-1.4388 -1.64986,-0.83149 v 0.39184 l -0.66839,0.16775 c -0.36762,0.0923 -1.52848,0.18383 -2.57969,0.20348 l -1.91129,0.0357 -0.0822,-0.57741 -0.0822,-0.57741 0.48721,-0.26075 c 0.26797,-0.14341 1.34766,-0.34553 2.39931,-0.44916 l 1.9121,-0.18841 -1.07676,-1.16815 -1.07676,-1.16815 0.0826,-0.7157 0.0826,-0.71569 2.83588,-0.075 2.83589,-0.075 -0.15685,-0.78422 -0.15685,-0.78423 0.30203,-0.36391 0.30202,-0.36392 -1.17856,-1.31084 -1.17856,-1.31085 -1.61971,-0.86329 -1.61971,-0.8633 -2.43175,-0.50183 -2.43175,-0.50184 -2.18959,-0.003 -2.18962,-0.003 0.41055,0.79391 c 0.2258,0.43665 0.93498,2.19282 1.57596,3.9026 0.64097,1.70978 1.54374,4.00167 2.00616,5.09307 0.46243,1.09141 0.89891,2.29812 0.96996,2.6816 l 0.12918,0.69722 -0.29946,0.55955 -0.29946,0.55955 h -0.76524 -0.76523 l -0.54837,-0.69714 c -0.3016,-0.38345 -0.54837,-0.81295 -0.54837,-0.95448 0,-0.14152 -0.99115,-1.94117 -2.20255,-3.99921 -1.2114,-2.05805 -2.7388,-4.68587 -3.39423,-5.83961 l -1.19169,-2.0977 -1.698999,-0.34635 -1.698996,-0.34636 -1.05442,-0.74077 c -0.57993,-0.40742 -1.32407,-1.14091 -1.653646,-1.62996 l -0.599226,-0.8892 v -0.98228 -0.98228 l 0.623777,-0.91919 0.623774,-0.91918 -0.366348,-0.50101 -0.36635,-0.50101 0.05704,-0.96665 0.05704,-0.96665 -0.693055,-0.82365 c -0.38118,-0.45301 -0.77157,-1.07103 -0.867532,-1.37338 l -0.174477,-0.54973 -0.439118,0.18192 c -0.241515,0.10006 -0.855837,0.28761 -1.36516,0.41678 l -0.926042,0.23486 -1.596797,-0.1578 -1.596798,-0.15779 -0.691359,1.67838 c -0.380248,0.92311 -0.671489,1.70045 -0.647202,1.72743 0.02429,0.027 0.934894,-0.0752 2.023573,-0.2271 1.088678,-0.15188 2.812854,-0.26384 3.8315,-0.24878 l 1.852083,0.0274 0.333317,0.45228 0.333317,0.45227 -0.333317,0.32259 -0.333317,0.32258 -1.5875,0.1349 c -3.047884,0.25899 -6.617653,0.75477 -7.011458,0.97377 -0.218282,0.12139 -1.170782,1.72484 -2.116667,3.56323 l -1.719792,3.34252 6.482292,6.24175 c 3.56526,3.43296 8.71482,8.48489 11.443462,11.22651 l 4.961171,4.98477 0.46279,-0.002 0.46279,-0.002 0.29685,-0.64035 0.29685,-0.64036 -0.28362,-0.28362 c -0.156,-0.15589 -0.72149,-0.28352 -1.25665,-0.28352 h -0.97302 l -0.34778,-0.41905 -0.34778,-0.41905 0.27626,-0.44084 c 0.15194,-0.24247 0.51912,-0.47721 0.81595,-0.52165 l 0.53969,-0.0808 -0.13682,-0.52321 -0.13683,-0.52321 0.47102,-0.52047 0.47102,-0.52047 h 0.67336 0.67337 l -0.3175,-0.3175 c -0.17462,-0.17462 -0.3175,-0.5786 -0.3175,-0.89773 v -0.58023 l 0.36854,-0.14143 c 0.42273,-0.16221 2.54188,0.81387 2.54188,1.17079 0,0.13032 0.24039,0.23694 0.53421,0.23694 h 0.5342 l -0.15434,-0.61495 -0.15434,-0.61495 0.4016,-0.3333 0.40161,-0.33331 0.80602,0.47614 c 0.44332,0.26187 0.80603,0.56952 0.80603,0.68366 0,0.11415 0.21305,0.20754 0.47345,0.20754 h 0.47345 l -0.0104,-0.72034 -0.0104,-0.72033 0.4956,-0.0991 0.49559,-0.0991 0.75046,0.55484 c 0.41276,0.30516 0.94171,0.55484 1.17545,0.55484 0.23374,0 0.68504,0.14275 1.0029,0.31723 0.31785,0.17447 1.15897,0.3233 1.86914,0.33072 l 1.29123,0.0135 0.29627,0.4796 0.29628,0.4796 -0.601,0.49346 -0.601,0.49346 0.31526,0.19485 c 0.1734,0.10716 0.78739,0.20507 1.36442,0.21756 l 1.04915,0.0227 0.28379,0.44753 0.2838,0.44754 -0.49291,0.54465 c -0.52763,0.58304 -0.46857,0.62276 0.82252,0.5532 l 0.83653,-0.0451 0.25039,0.44742 0.25039,0.44743 2.61725,-0.29094 c 1.43948,-0.16002 3.6888,-0.35889 4.99849,-0.44194 1.30969,-0.083 2.74472,-0.20577 3.18895,-0.27271 l 0.80771,-0.12172 -1.27073,-1.375 c -1.3297,-1.43881 -1.48744,-1.81887 -0.93999,-2.26479 0.32021,-0.26082 6.40717,-1.18266 10.06204,-1.52384 l 1.79382,-0.16745 2.07825,2.02244 2.07825,2.02244 4.41218,-0.32741 4.41218,-0.32741 -0.47904,-0.2606 c -0.26347,-0.14333 -0.57425,-0.41999 -0.69062,-0.6148 -0.11638,-0.19482 -0.43578,-0.35421 -0.70978,-0.35421 h -0.49819 l -0.16796,0.52917 -0.16795,0.52917 h -0.63432 -0.63432 l -0.2832,-0.52917 -0.2832,-0.52917 h -0.72296 -0.72295 l -2.17675,-2.36032 c -1.1972,-1.29818 -2.30083,-2.68672 -2.4525,-3.08564 l -0.27577,-0.72532 0.42664,-0.89908 c 0.23466,-0.4945 0.61202,-0.97022 0.83858,-1.05716 l 0.41193,-0.15807 0.49052,0.30634 c 0.26979,0.16848 0.65012,0.30634 0.84517,0.30634 h 0.35464 l -0.11096,-0.75605 -0.11096,-0.75604 0.42137,-0.16169 c 0.56883,-0.21829 1.17329,0.0429 1.49636,0.64657 l 0.26654,0.49804 h 0.51156 0.51155 l -0.15359,-0.40024 -0.15358,-0.40025 0.32658,-0.3935 c 0.46992,-0.56623 0.97829,-0.48637 1.62283,0.25492 0.31009,0.35663 0.88562,0.71911 1.27894,0.80549 l 0.71515,0.15708 0.93847,0.98043 c 0.51615,0.53925 1.67392,1.8674 2.57282,2.95145 l 1.63435,1.97101 -0.16657,0.54253 c -0.0916,0.2984 -0.19973,0.84019 -0.24023,1.204 -0.0405,0.3638 -0.0923,0.75075 -0.11506,0.85989 -0.0228,0.10914 -0.32062,0.19844 -0.66187,0.19844 h -0.62045 l -0.47889,-0.52917 c -0.26339,-0.29104 -0.68741,-0.52916 -0.94228,-0.52916 h -0.46339 l 0.14547,0.55625 0.14546,0.55625 -0.36867,0.23345 -0.36867,0.23344 0.95001,0.004 c 0.52251,0.002 3.26095,-0.2248 6.08542,-0.5045 2.82447,-0.2797 8.05243,-0.59144 11.61769,-0.69276 3.56526,-0.10131 6.56773,-0.23429 6.67215,-0.2955 0.21822,-0.12794 -1.53284,-1.74608 -4.95236,-4.57643 -1.30968,-1.08403 -3.86953,-3.35252 -5.68854,-5.04108 -1.81901,-1.68856 -4.51904,-4.14697 -6.00006,-5.46312 l -2.69277,-2.393 -1.90586,-0.17713 c -5.42177,-0.5039 -14.47838,-5.53928 -15.21068,-8.45697 l -0.15821,-0.63038 -1.10527,0.19549 c -0.6079,0.10752 -4.49855,0.33566 -8.6459,0.50698 -4.14734,0.17132 -10.63625,0.48029 -14.41979,0.68659 -3.78354,0.2063 -9.26505,0.45506 -12.18113,0.5528 l -5.30196,0.17771 -0.58501,-0.31309 -0.58502,-0.31309 v -0.50203 -0.50203 l 0.46302,-0.12969 c 0.25467,-0.0713 2.90381,-0.20687 5.88698,-0.3012 2.98317,-0.0943 8.22192,-0.3411 11.64166,-0.54837 3.41974,-0.20727 7.18046,-0.37741 8.35715,-0.37809 l 2.13944,-0.001 0.0419,-1.12448 c 0.0231,-0.61846 0.16239,-2.01745 0.30958,-3.10885 0.38498,-2.85457 0.78547,-10.35629 0.78981,-14.79446 l 0.004,-3.81415 1.2186,-1.95518 1.21861,-1.95517 0.56733,0.0809 0.56733,0.0809 0.0818,0.70805 0.0818,0.70805 -0.91307,1.40862 -0.91307,1.40862 -0.16973,7.01146 c -0.0934,3.8563 -0.2392,7.33888 -0.32409,7.73906 l -0.15435,0.7276 h 2.64708 2.64708 l 2.3447,-0.6761 c 3.11782,-0.89903 4.46619,-1.5425 7.74701,-3.697 l 2.75649,-1.81017 -0.8909,-0.67868 c -0.48999,-0.37327 -1.16031,-0.9168 -1.4896,-1.20784 l -0.59871,-0.52917 -0.95285,-3.30729 c -1.13757,-3.94845 -3.93775,-11.04288 -5.18541,-13.1376 -0.49138,-0.82497 -1.68013,-2.28439 -2.64167,-3.24315 l -1.74826,-1.74321 -1.69133,-0.93093 -1.69132,-0.93093 -0.0833,-0.58107 -0.0833,-0.581075 0.65921,-0.16545 0.65922,-0.16545 1.78119,0.996095 1.78119,0.9961 1.87625,1.89197 c 1.03194,1.04058 2.28397,2.57788 2.7823,3.41621 1.31038,2.20443 4.07965,9.17252 5.23343,13.16846 l 0.99384,3.44202 0.79896,0.54637 c 0.43943,0.3005 1.12639,0.84714 1.52657,1.21475 l 0.72761,0.66839 v 0.70857 0.70857 l -0.55253,0.70243 c -0.30389,0.38633 -0.88733,0.87555 -1.29653,1.08716 l -0.74399,0.38473 0.25694,1.01226 0.25694,1.01225 1.89948,-0.63955 1.89948,-0.63955 2.06124,0.13903 2.06124,0.13903 2.01308,0.95601 2.01309,0.95602 1.67181,1.73041 1.67181,1.73041 0.86845,1.76352 0.86844,1.76352 v 2.25507 2.25507 l -0.77123,1.67036 -0.77124,1.67035 -1.11622,0.97548 -1.11623,0.97548 2.41663,2.08969 c 1.32915,1.14933 3.84538,3.42103 5.59163,5.04822 1.74625,1.62718 4.66124,4.19916 6.47776,5.71551 1.81651,1.51635 4.0379,3.47623 4.93642,4.35529 l 1.63367,1.59829 0.18735,1.24935 c 0.44736,2.98322 -0.27515,11.3832 -1.12844,13.11939 l -0.4651,0.94632 -1.01678,0.23513 -1.01678,0.23513 -0.40105,-0.40105 -0.40106,-0.40105 0.24861,-0.44424 c 0.13673,-0.24433 0.53251,-0.58577 0.87951,-0.75877 l 0.63091,-0.31454 0.18107,-0.9228 c 0.6968,-3.55106 1.06898,-10.9012 0.56669,-11.19149 -0.4076,-0.23556 -14.14503,0.38369 -19.64716,0.88564 -3.1287,0.28543 -7.8912,0.69698 -10.58333,0.91455 -2.69214,0.21758 -6.02589,0.5129 -7.40833,0.65627 -5.90105,0.61198 -10.96554,1.07669 -14.55209,1.33525 -3.99903,0.28831 -12.59119,1.16245 -15.68178,1.59542 -0.98514,0.13802 -4.31019,0.37131 -7.38899,0.51843 -3.0788,0.14713 -5.6514,0.32108 -5.71689,0.38657 -0.0655,0.0655 -0.21521,2.1181 -0.33272,4.56136 -0.11752,2.44326 -0.29372,5.68123 -0.39157,7.19548 l -0.17791,2.75319 2.34337,-0.1883 c 1.28886,-0.10357 4.66509,-0.29202 7.50274,-0.4188 7.21335,-0.32226 24.04257,-2.08099 39.29063,-4.10605 9.70737,-1.28922 26.87929,-3.30677 28.14484,-3.30677 h 0.52679 l 0.17198,0.54187 0.17198,0.54186 -0.295,0.35545 -0.295,0.35546 -2.57113,0.29797 c -1.41412,0.16388 -5.72629,0.65736 -9.58259,1.09661 -3.8563,0.43926 -10.94052,1.32235 -15.74271,1.96242 -15.51683,2.06822 -32.14218,3.80475 -39.42291,4.11777 -5.20193,0.22364 -8.81243,0.45176 -10.50121,0.66351 l -0.97622,0.1224 z m 0.0953,-11.76657 0.25684,-5.28803 -1.71526,-1.91649 C 99.525174,170.87348 80.920221,152.8349 80.663739,152.8349 c -0.07189,0 -0.381976,0.42586 -0.689075,0.94635 l -0.558364,0.94635 0.191786,0.31042 c 0.187471,0.30343 5.065898,5.04 6.481472,6.29299 0.971391,0.85983 1.126302,2.08722 0.263435,2.08722 -0.679344,0 -1.696905,-0.81012 -5.084437,-4.04792 l -2.97779,-2.84618 -0.663213,0.97601 -0.663213,0.976 1.55977,1.41613 c 0.857874,0.77887 2.606288,2.33473 3.885363,3.45748 l 2.325593,2.04135 -0.07663,0.53492 -0.07663,0.53492 -0.673137,0.0785 -0.67314,0.0785 -3.002526,-2.7243 c -1.651392,-1.49836 -3.313888,-2.97821 -3.694438,-3.28855 l -0.691912,-0.56425 -0.985364,1.13274 -0.985364,1.13274 6.543564,6.31669 c 3.598963,3.47418 8.448567,8.06149 10.7769,10.19401 2.328334,2.13253 5.721615,5.2982 7.540626,7.03482 l 3.307295,3.1575 0.18267,-1.88146 c 0.10048,-1.0348 0.29826,-4.26107 0.43951,-7.16948 z m -5.473071,-1.00231 c -1.293543,-0.94167 -7.704828,-6.95851 -9.390158,-8.81245 l -1.541045,-1.69523 0.0881,-0.46453 0.0881,-0.46454 0.697261,-0.081 0.69726,-0.081 1.256596,1.45551 c 0.691126,0.80053 2.340872,2.43137 3.666101,3.6241 6.245434,5.62097 6.797402,6.27805 5.746306,6.84058 l -0.499658,0.26741 z m -2.109081,-7.29955 c -2.138371,-2.0174 -4.457894,-4.2792 -5.154496,-5.0262 l -1.266553,-1.3582 0.283673,-0.53005 c 0.15602,-0.29152 0.467717,-0.53004 0.692658,-0.53004 0.41914,0 10.291329,9.3364 10.53008,9.95859 0.14044,0.36599 -0.499421,1.15391 -0.937074,1.15391 -0.14319,0 -2.009918,-1.6506 -4.148288,-3.66801 z m 23.019252,0.98434 2.30096,-0.29235 -2.20592,-2.17632 -2.20592,-2.17631 -1.55024,0.22901 c -0.85264,0.12596 -2.90977,0.43546 -4.5714,0.68777 l -3.02117,0.45874 -0.0969,0.29225 c -0.0533,0.16074 0.46583,1.04087 1.15364,1.95584 l 1.25054,1.6636 3.32273,-0.17494 c 1.8275,-0.0962 4.35817,-0.30649 5.62369,-0.46729 z m 24.95113,-2.36451 c 1.89177,-0.15922 3.60908,-0.34286 3.81625,-0.4081 l 0.37667,-0.11862 -1.14267,-1.16429 -1.14266,-1.16428 -1.35067,0.13455 c -2.20796,0.21996 -7.11724,0.87959 -7.20586,0.9682 -0.15974,0.15975 2.42144,2.02681 2.81248,2.03437 0.21828,0.004 1.94469,-0.12261 3.83646,-0.28183 z m 15.26376,-4.79434 c 0.84551,-0.17464 1.53728,-0.39067 1.53728,-0.48007 0,-0.0894 -0.7139,-1.01068 -1.58646,-2.04727 l -1.58646,-1.88471 -0.86093,0.10764 c -3.47987,0.43506 -5.38461,0.71963 -5.56565,0.83151 -0.11634,0.0719 0.53744,0.94489 1.45284,1.93996 l 1.66437,1.80923 1.70386,0.0206 c 0.93713,0.0113 2.39565,-0.12227 3.24115,-0.2969 z m -33.39766,-2.06012 2.50359,-0.004 -1.29194,-1.31167 -1.29195,-1.31167 -1.15035,0.15768 -1.15034,0.15767 -0.49316,-0.4463 -0.49315,-0.44631 -1.81711,0.0789 -1.81711,0.0789 1.7198,1.66372 1.71979,1.66371 0.52916,-0.13874 c 0.29105,-0.0763 1.65579,-0.14038 3.03277,-0.14237 z m -16.37946,-3.50934 c -0.57706,-1.64962 -2.88822,-7.24152 -4.51083,-10.91406 -0.81132,-1.83629 -1.39651,-3.83246 -1.37678,-4.69636 0.0184,-0.80458 -0.0177,-0.83073 -0.67918,-0.49317 -0.25269,0.12893 -1.08463,0.50653 -1.84877,0.83911 l -1.389352,0.60468 0.772781,0.37427 0.772781,0.37427 1.24229,2.42464 c 0.68326,1.33355 1.39031,2.60324 1.57123,2.82152 0.30967,0.37362 1.93598,3.33775 3.12109,5.68854 0.585,1.1604 2.58472,4.36562 2.72369,4.36562 0.0478,0 -0.1317,-0.62508 -0.39895,-1.38906 z m -8.795715,-11.21307 c -0.481986,-0.67377 -1.293056,-1.53697 -1.802379,-1.91822 -0.509322,-0.38126 -1.071083,-0.87178 -1.248357,-1.09006 l -0.322312,-0.39688 -0.04957,0.52917 c -0.104931,1.12029 0.09189,1.87555 0.646893,2.4823 0.635985,0.69528 2.423107,1.60385 3.17259,1.61293 l 0.47946,0.006 -0.87633,-1.22504 z m 64.930545,-1.16784 c 0.54119,-0.15031 1.32636,-0.56138 1.74484,-0.91351 l 0.76087,-0.64023 0.73554,-1.63899 0.73553,-1.63898 -0.13239,-1.6493 -0.13239,-1.64929 -0.75741,-1.41913 c -0.41658,-0.78053 -1.41774,-2.07398 -2.2248,-2.87435 l -1.46737,-1.45521 -1.5784,-0.78211 -1.57841,-0.78213 -2.24895,-0.0109 -2.24896,-0.0109 -1.32292,0.60694 c -2.12208,0.97358 -3.27882,1.90259 -4.49701,3.61164 l -1.14101,1.60079 -0.17609,1.19062 -0.17609,1.19063 0.9652,1.12448 c 0.53085,0.61846 1.058,1.12448 1.17143,1.12448 0.11343,0 0.75538,-0.92274 1.42656,-2.05053 0.67117,-1.12778 1.49875,-2.39321 1.83905,-2.81206 l 0.61873,-0.76155 0.57993,0.18407 0.57993,0.18406 v 0.52585 c 0,0.28922 -0.4595,1.20393 -1.0211,2.03269 -0.5616,0.82876 -1.28562,2.02702 -1.60893,2.6628 l -0.58785,1.15596 0.23419,0.23419 c 0.12881,0.1288 0.9808,0.63309 1.89332,1.12065 l 1.65913,0.88646 1.73988,-3.40109 1.73988,-3.40109 h 0.45689 c 0.25128,0 0.61433,0.18972 0.80677,0.4216 l 0.34989,0.42159 -1.23903,2.44573 c -0.68147,1.34515 -1.41793,2.87389 -1.63658,3.3972 l -0.39756,0.95148 1.38524,0.39483 c 2.53662,0.72303 3.39406,0.7993 4.75045,0.42259 z m -64.856522,-7.1824 1.922882,-1.10863 -0.37828,-0.11652 c -0.75312,-0.23198 -1.24967,-0.89175 -1.588946,-2.11124 -0.190281,-0.68394 -0.581745,-1.64525 -0.869921,-2.13624 l -0.523957,-0.89271 -0.475303,0.65249 c -0.261419,0.35887 -0.955321,0.98514 -1.542008,1.39171 l -1.066702,0.73923 7.94e-4,0.42704 c 5.29e-4,0.23487 0.476335,1.14141 1.057492,2.01453 0.581157,0.87313 1.057029,1.73633 1.057492,1.91823 0.0013,0.52011 0.351247,0.407 2.406409,-0.77789 z m 45.864652,-1.49895 1.57128,-0.17055 0.23907,-0.92604 c 0.29366,-1.13752 2.32776,-4.03729 3.37531,-4.81177 l 0.77114,-0.57013 -0.16017,-0.68249 c -0.0881,-0.37537 -0.25469,-0.78643 -0.37021,-0.91346 l -0.21004,-0.23097 -0.74799,0.52777 c -1.47555,1.04112 -3.54056,1.92417 -6.33386,2.70851 l -2.84028,0.79754 h -2.86453 -2.86453 l -0.0136,0.59531 c -0.007,0.32742 -0.10427,1.41178 -0.21511,2.40969 l -0.20153,1.81438 4.64689,-0.18861 c 2.55578,-0.10374 5.35395,-0.26537 6.21815,-0.35918 z M 88.02709,114.26656 c -0.229803,-0.91561 -0.930465,-1.91291 -1.343929,-1.91291 -0.193228,0 -0.780934,0.25347 -1.306016,0.56328 l -0.954696,0.56328 0.177126,0.82578 c 0.09742,0.45418 0.279463,1.02139 0.404548,1.26046 l 0.227422,0.43469 1.47873,-0.54473 1.478732,-0.54473 z m 18.17117,74.23417 -0.3175,-0.3175 v -1.10203 -1.10202 l 0.57797,-0.73478 0.57797,-0.73477 2.79547,0.17539 c 1.5375,0.0965 3.66861,0.33084 4.7358,0.52082 l 1.94034,0.34543 0.23842,0.37671 c 0.40184,0.63492 0.27703,1.22589 -0.43846,2.0762 l -0.68498,0.81405 h -4.55377 -4.55376 z m 14.3181,-1.5569 c -0.42502,-0.42501 -0.11707,-1.23 0.53625,-1.40174 1.06834,-0.28085 8.32216,-0.7635 8.98278,-0.5977 0.3618,0.0908 0.73487,0.36586 0.82902,0.61124 l 0.1712,0.44613 -0.34045,0.32321 -0.34045,0.3232 -4.23333,0.2921 c -5.18978,0.35809 -5.25046,0.35813 -5.60502,0.004 z m 13.30603,-0.38426 -0.4554,-0.4554 0.1475,-0.3844 c 0.0811,-0.21142 0.14751,-0.4342 0.14751,-0.49506 0,-0.0609 0.32742,-0.11443 0.72761,-0.11906 l 0.7276,-0.008 -0.46302,-0.35149 c -0.47449,-0.36019 -0.63094,-1.34876 -0.25064,-1.5838 0.11681,-0.0722 1.78486,-0.33094 3.70677,-0.57501 l 3.4944,-0.44375 0.39427,0.32721 c 0.58823,0.48819 0.47795,1.02938 -0.28016,1.3748 l -0.67442,0.30728 0.40984,0.22936 c 0.22541,0.12614 0.40984,0.46411 0.40984,0.75104 v 0.5217 l -0.59532,0.23204 c -0.32742,0.12763 -1.7264,0.37471 -3.10885,0.54908 -1.38245,0.17436 -2.82148,0.37603 -3.19784,0.44815 l -0.68429,0.13112 z m -11.91484,-2.12526 -0.41533,-0.41533 0.25457,-0.47567 0.25457,-0.47567 1.79542,-0.1638 c 0.98749,-0.0901 2.98867,-0.2401 4.44707,-0.33337 l 2.65164,-0.16958 0.37573,0.45272 0.37572,0.45273 -0.27721,0.44084 -0.27722,0.44084 -1.69182,0.16223 c -0.9305,0.0892 -2.90366,0.2381 -4.38481,0.33082 l -2.693,0.16858 z m -12.48098,-0.35278 -1.61356,-0.15809 -0.43696,-0.36313 -0.43696,-0.36312 v -0.98493 -0.98493 l 0.46302,-0.40235 c 0.25466,-0.22129 0.80806,-0.48456 1.22977,-0.58504 l 0.76674,-0.18269 3.58495,0.33167 3.58496,0.33167 0.49987,0.49987 0.49988,0.49988 -0.17314,0.70467 c -0.0952,0.38758 -0.34642,0.97257 -0.5582,1.29999 l -0.38505,0.59531 -2.70588,-0.0403 c -1.48824,-0.0222 -3.43199,-0.11149 -4.31944,-0.19844 z m 38.42632,-0.83875 -0.69714,-0.54837 v -0.76524 -0.76524 l 0.51178,-0.27389 c 0.28147,-0.15064 0.93357,-0.27389 1.4491,-0.27389 h 0.93734 l 0.44051,0.67229 0.4405,0.6723 -0.29886,0.65593 -0.29886,0.65594 -0.68194,0.25927 c -0.92495,0.35166 -1.00393,0.33899 -1.80243,-0.2891 z m 5.55625,-1.05834 -0.69714,-0.54837 v -0.49496 -0.49496 l 0.58804,-0.41188 c 0.32342,-0.22653 0.91873,-0.41187 1.32292,-0.41187 h 0.73488 l 0.52916,0.52916 c 0.29104,0.29105 0.52917,0.70776 0.52917,0.92605 0,0.21828 -0.23813,0.635 -0.52917,0.92604 l -0.52916,0.52916 h -0.62578 c -0.34418,0 -0.93949,-0.24676 -1.32292,-0.54837 z m -31.59757,-0.0458 -0.32953,-0.39706 0.1613,-0.42034 c 0.24164,-0.62971 0.9178,-0.757 5.12707,-0.96518 l 3.84888,-0.19035 0.49242,0.46042 0.49242,0.46042 -0.55856,0.55856 -0.55857,0.55857 h -2.20904 c -1.21497,0 -3.0928,0.0747 -4.17295,0.16601 l -1.96391,0.16601 z m 36.86093,-0.30041 c -0.36786,-0.36786 -0.66883,-0.90373 -0.66883,-1.19082 v -0.52199 l 0.69714,-0.54837 0.69714,-0.54837 h 0.77009 0.7701 l 0.64943,0.64943 c 0.35719,0.35719 0.64943,0.81268 0.64943,1.01221 0,0.55883 -1.0952,1.43605 -2.04314,1.63649 l -0.85252,0.18025 z m -24.56952,0.18906 c -0.3385,-0.3385 -0.17285,-1.12976 0.28663,-1.3691 0.25466,-0.13265 1.29645,-0.32191 2.3151,-0.42058 1.01865,-0.0987 2.53523,-0.29694 3.37018,-0.44063 l 1.5181,-0.26124 0.53242,0.28494 c 0.62785,0.33602 0.6862,0.86767 0.14455,1.31719 -0.72053,0.59799 -7.69848,1.35792 -8.16698,0.88942 z m 30.41963,-0.48623 -0.46077,-0.46076 0.0798,-1.08998 0.0798,-1.08998 0.79375,-0.38145 0.79375,-0.38145 3.83646,-0.32835 c 2.11005,-0.18059 5.88487,-0.46071 8.38848,-0.62247 l 4.55203,-0.29413 0.54416,0.33984 c 0.65171,0.407 0.89987,1.07378 0.66962,1.79923 l -0.16887,0.53205 -1.08026,0.52192 c -0.59415,0.28706 -1.44891,0.58603 -1.89949,0.66438 -1.38914,0.24154 -9.6539,0.96215 -12.74134,1.11092 l -2.9263,0.141 z m -42.70071,-1.75134 c -0.43146,-0.44057 -0.41918,-0.88743 0.0347,-1.26416 l 0.36548,-0.30332 4.57517,-0.29084 4.57516,-0.29085 0.34077,0.46603 0.34077,0.46603 -0.2464,0.4604 -0.2464,0.4604 -3.11678,0.17272 c -1.71424,0.095 -3.83117,0.23765 -4.70429,0.31701 l -1.5875,0.14429 z m 12.96458,-0.13702 c -0.1819,-0.0764 -0.33073,-0.42963 -0.33073,-0.78491 v -0.64596 l 0.68668,-0.26107 c 0.94019,-0.35747 6.77625,-0.92136 7.33128,-0.70838 l 0.44871,0.17219 v 0.54314 0.54315 l -0.59531,0.24517 c -0.32743,0.13484 -1.84547,0.3782 -3.37344,0.54079 -1.52797,0.1626 -3.01625,0.34045 -3.30729,0.39523 -0.29104,0.0548 -0.678,0.0371 -0.8599,-0.0394 z m -26.19254,-0.28853 -1.12328,-0.10122 -0.30645,-0.5726 c -0.37925,-0.70863 -0.34278,-2.2438 0.065,-2.7351 l 0.30388,-0.36616 2.41499,0.0248 c 1.32825,0.0137 3.52603,0.1031 4.88394,0.19873 l 2.46894,0.17388 0.37534,0.51329 c 0.20643,0.28233 0.37533,0.89877 0.37533,1.36988 v 0.85657 l -0.41578,0.41578 -0.41577,0.41577 -3.75142,-0.0462 c -2.06327,-0.0254 -4.25688,-0.0918 -4.87468,-0.14745 z m 38.09879,-0.89411 c -0.36709,-0.37845 -0.41524,-1.06933 -0.16259,-2.3326 l 0.16814,-0.8407 0.82952,-0.63271 0.82951,-0.6327 4.62474,-0.65787 c 2.54361,-0.36184 5.45818,-0.7304 6.47683,-0.81902 1.41547,-0.12316 15.89496,-0.59677 22.5431,-0.73737 0.46599,-0.01 1.03154,0.13501 1.25677,0.32194 l 0.4095,0.33986 v 0.72895 0.72896 l -0.39396,0.32696 c -0.21668,0.17983 -0.32903,0.43202 -0.24966,0.56044 0.18956,0.30672 -0.68472,0.67143 -2.79596,1.16635 l -1.71979,0.40316 -5.68854,0.26252 c -3.1287,0.14439 -7.05776,0.38059 -8.73125,0.52489 -5.08017,0.43806 -14.06542,1.27797 -15.61042,1.4592 l -1.45521,0.17071 z m 11.17865,-2.60464 c 4.94771,-0.44235 11.55567,-0.92042 14.68437,-1.06236 l 5.68854,-0.25807 1.45521,-0.36904 1.45521,-0.36904 -5.15937,0.1137 c -2.83766,0.0625 -8.07641,0.22285 -11.64167,0.35626 l -6.48229,0.24254 -4.49792,0.66571 c -2.47385,0.36614 -4.57333,0.66634 -4.6655,0.66713 -0.0922,7.9e-4 -0.22752,0.23064 -0.30078,0.5108 l -0.1332,0.50937 0.30078,-0.10136 c 0.16543,-0.0557 4.34891,-0.46328 9.29662,-0.90564 z m -35.9315,0.95398 c -0.22382,-0.58328 0.0292,-1.18038 0.56792,-1.34052 0.24122,-0.0717 2.36781,-0.16553 4.72577,-0.20851 l 4.28719,-0.0781 0.46586,0.46302 0.46586,0.46302 -0.38927,0.38927 -0.38927,0.38927 -4.78327,0.17957 -4.78327,0.17958 z m 12.1631,-0.0838 c -0.097,-0.097 -0.17639,-0.39048 -0.17639,-0.65215 v -0.47576 l 0.51444,-0.27532 c 0.675,-0.36125 7.79231,-1.10898 8.40437,-0.88294 0.93169,0.34407 0.99973,1.19508 0.12271,1.53468 -0.50561,0.19578 -6.64164,0.91493 -7.87295,0.92272 -0.44869,0.003 -0.89517,-0.0742 -0.99218,-0.17123 z m -10.16442,-6.12097 -0.59531,-0.0894 v -0.64961 -0.6496 l 0.61253,-0.23289 c 0.33689,-0.12808 1.28939,-0.31745 2.11667,-0.42081 1.72645,-0.21571 1.8016,-0.33668 0.71039,-1.14345 l -0.79375,-0.58685 v -0.50341 -0.50342 l 0.54686,-0.17357 0.54687,-0.17357 1.03421,0.68441 c 0.56881,0.37642 1.22112,0.96968 1.44958,1.31835 l 0.41537,0.63394 -0.16454,0.65556 c -0.0905,0.36056 -0.42334,0.79228 -0.73967,0.95938 -0.71768,0.37913 -4.33756,0.99543 -5.13921,0.87498 z m 26.65678,-1.84617 c -0.21829,-0.0742 -1.33166,-1.02351 -2.47417,-2.10949 l -2.07729,-1.9745 -1.75917,0.14074 c -0.96754,0.0774 -3.24745,0.32576 -5.06646,0.55188 -1.81901,0.22613 -3.97916,0.41367 -4.80034,0.41677 l -1.49304,0.006 -0.1523,-0.39688 c -0.2311,-0.60223 0.0883,-1.18216 0.72018,-1.30746 0.31137,-0.0617 2.05441,-0.24787 3.87342,-0.41361 1.81901,-0.16574 4.20026,-0.46204 5.29167,-0.65844 l 1.98437,-0.35709 1.14251,0.21159 1.1425,0.21159 0.84187,0.75475 c 0.46303,0.41511 1.52648,1.40816 2.36322,2.20676 l 1.52136,1.45201 v 0.43891 c 0,0.56781 -0.55198,0.99905 -1.05833,0.82683 z m -50.628008,-1.7703 c -0.09459,-0.24651 -0.17199,-0.49525 -0.17199,-0.55275 0,-0.31455 1.403318,-0.93945 2.633678,-1.17278 l 1.41205,-0.26779 0.35839,0.29743 c 0.99307,0.82418 -0.1026,1.70419 -2.44619,1.96469 l -1.61395,0.1794 z m 66.361158,-1.09531 c -0.54963,-0.67076 -3.20649,-3.41719 -5.90413,-6.10317 l -4.9048,-4.88362 -1.20534,0.13833 c -0.66294,0.0761 -2.60433,0.28199 -4.3142,0.45756 l -3.10885,0.31924 v 1.38296 1.38297 l -0.50522,0.62462 -0.50521,0.62462 -3.1369,0.0869 -3.1369,0.0869 -0.72351,-0.56911 -0.72351,-0.56911 v -2.99111 -2.99111 l 0.43433,-0.36046 0.43432,-0.36046 3.79668,-0.0982 3.79666,-0.0982 0.23216,0.62468 c 0.12768,0.34357 0.16878,0.79108 0.0913,0.99447 l -0.14082,0.36981 1.69694,-0.19323 c 0.93332,-0.10628 2.69867,-0.29714 3.92299,-0.42413 l 2.22604,-0.23091 0.21731,-0.34254 c 0.11951,-0.1884 0.21912,-0.59267 0.22135,-0.89838 0.002,-0.3057 0.13476,-0.93078 0.29452,-1.38906 l 0.29046,-0.83323 h 0.64388 0.64388 l 0.1577,0.41093 c 0.0867,0.22602 0.0247,1.07308 -0.13782,1.88237 l -0.29551,1.47143 4.82587,4.80658 c 2.65423,2.64361 5.40118,5.48199 6.10434,6.3075 l 1.27848,1.50093 -0.17183,0.54138 -0.17183,0.54138 h -0.61175 -0.61176 z m -21.2894,-9.89294 v -2.11667 h -2.51355 -2.51354 v 2.11667 2.11666 h 2.51354 2.51355 z m -47.87417,7.75849 c -1.040066,-0.53501 -2.183389,-1.2437 -2.540719,-1.57486 l -0.649693,-0.60212 v -0.63308 -0.63308 l 0.463021,-0.39767 c 0.683358,-0.5869 1.075457,-0.68429 4.614662,-1.14616 3.432249,-0.44792 4.288879,-0.39104 4.554989,0.30244 l 0.16604,0.43269 -0.27255,0.32841 -0.27256,0.32841 -2.97316,0.33777 c -1.635229,0.18577 -3.193193,0.4168 -3.462134,0.51339 l -0.488985,0.17563 1.584354,0.84445 1.584352,0.84445 h 0.817953 c 0.44987,0 1.65973,-0.14435 2.68857,-0.32077 l 1.87063,-0.32078 0.43364,0.27353 c 0.54547,0.34408 0.65064,0.66727 0.36429,1.11955 l -0.22454,0.35466 -1.95398,0.37264 c -1.07468,0.20495 -2.50728,0.37277 -3.18356,0.37294 l -1.22959,2.7e-4 -1.89103,-0.97276 z m 14.7351,-1.43399 -0.46302,-0.26538 v -0.52257 -0.52257 l 0.67868,-0.25803 c 0.37328,-0.14192 1.25167,-0.25804 1.95198,-0.25804 h 1.2733 l 0.30154,0.36334 0.30155,0.36334 -0.16604,0.4327 c -0.16999,0.44299 -0.50904,0.55751 -2.35663,0.79599 l -1.05834,0.13661 z m 18.58698,-0.95596 c -0.21828,-0.0803 -0.60523,-0.32744 -0.85989,-0.54929 l -0.46302,-0.40335 v -4.27405 -4.27405 l 0.3464,-0.47374 0.34641,-0.47374 1.17495,-0.22676 c 0.64622,-0.12472 1.99526,-0.23195 2.99786,-0.23829 l 1.82291,-0.0115 0.35149,0.46302 0.35148,0.46302 0.008,4.31687 0.008,4.31688 -0.2677,0.50019 -0.2677,0.5002 -0.98907,0.27468 c -1.03137,0.28644 -3.87409,0.34249 -4.56095,0.0899 z m 3.81482,-1.82498 0.41852,-0.1606 v -3.54356 -3.54357 h -1.02527 c -0.56389,0 -1.40349,0.0756 -1.86577,0.1681 l -0.84051,0.16811 0.0647,3.33762 c 0.0356,1.8357 0.1083,3.42692 0.1616,3.53607 0.11583,0.23718 2.49139,0.2663 3.08675,0.0378 z m -44.8156,-1.93807 -0.310933,-0.58098 0.285427,-0.34392 0.285427,-0.34392 4.69387,-0.19673 c 2.58163,-0.1082 5.573289,-0.21372 6.648139,-0.23448 l 1.95426,-0.0378 0.28875,0.45574 0.28875,0.45574 -0.30937,0.30937 c -0.42443,0.42443 -3.30969,0.72725 -8.845023,0.92833 l -4.668364,0.16959 z m 58.90426,0.0702 c -0.3518,-0.3518 -0.16461,-1.13422 0.33538,-1.4018 l 0.51177,-0.27389 h 2.24471 c 1.2346,0 2.43305,0.0723 2.66323,0.1606 0.49516,0.19 0.54925,0.92575 0.10102,1.37398 l -0.3175,0.3175 h -2.68111 c -1.47462,0 -2.76049,-0.0794 -2.8575,-0.17639 z m -39.33081,-1.66839 -0.32015,-0.59821 0.35656,-0.3374 0.35656,-0.3374 5.12877,-0.0948 5.12878,-0.0948 0.29069,0.45806 0.29069,0.45805 -0.43003,0.43004 -0.43004,0.43003 -5.02584,0.14227 -5.02584,0.14227 z m 14.7937,-0.76327 -0.60683,-0.49139 0.68368,-0.44796 0.68367,-0.44796 1.67713,0.0795 1.67712,0.0794 0.0907,0.47573 c 0.0499,0.26165 -0.0528,0.64861 -0.22818,0.8599 l -0.31883,0.38416 h -1.52579 -1.52579 z m 2.68581,-47.03918 c -2.28944,-0.80145 -4.20865,-2.51183 -6.78597,-6.04756 -1.9142,-2.626035 -7.84003,-9.959805 -9.36282,-11.587365 -3.35196,-3.58261 -6.7485,-5.98886 -13.10859,-9.2867 -4.290727,-2.22482 -4.894792,-2.63929 -4.894792,-3.3585 v -0.47032 l 0.513827,-0.16309 0.513826,-0.16308 4.883962,2.57075 c 2.686177,1.41392 5.997067,3.35436 7.357527,4.3121 l 2.47357,1.74135 2.97965,2.97581 2.97965,2.9758 -0.37252,-0.8588 c -0.20488,-0.47234 -0.74875,-1.67461 -1.20858,-2.67171 l -0.83607,-1.81292 0.081,-0.56833 0.081,-0.56834 h 0.65133 0.65135 l 0.9775,1.98438 c 0.53763,1.0914 1.4219,3.11547 1.96505,4.49792 0.54314,1.38244 1.2461,3.16838 1.56212,3.96875 l 0.57458,1.4552 2.23001,2.910425 c 1.2265,1.60073 2.90283,3.58651 3.72516,4.41286 l 1.49516,1.50243 1.37329,0.40783 1.3733,0.40782 1.17137,-0.16055 1.17137,-0.16056 0.9005,-0.99674 c 2.01418,-2.22945 3.27875,-6.969695 4.30275,-16.128715 l 0.4585,-4.10105 3e-5,-5.95312 2e-5,-5.95313 -0.6009,-4.36562 c -0.3305,-2.4011 -0.93574,-5.744003 -1.345,-7.428684 l -0.74409,-3.063055 -1.81858,-4.585004 -1.81857,-4.585005 -1.45521,-0.499734 c -2.61039,-0.896438 -6.95862,-2.036996 -9.525,-2.498447 l -2.51354,-0.451954 -7.54062,-0.01958 -7.54063,-0.01958 -4.630205,0.985073 c -2.546614,0.541792 -5.64224,1.262502 -6.879167,1.601578 l -2.248958,0.616503 -0.861774,2.631758 c -0.473975,1.447461 -1.097481,3.822377 -1.385568,5.277585 l -0.523793,2.645834 -0.520179,6.482292 -0.520178,6.48229 -0.794793,2.64584 c -0.916659,3.05152 -2.101797,6.5401 -2.89316,8.51634 l -0.549643,1.3726 2.04017,1.91184 c 2.709831,2.5394 5.788123,4.52911 11.123925,7.19018 l 4.409993,2.19935 2.613367,0.595 2.613373,0.59499 2.94288,0.14089 2.94288,0.14089 1.45521,-0.43479 c 0.80036,-0.23913 1.77086,-0.49809 2.15666,-0.57546 l 0.70146,-0.14068 0.19205,0.60508 0.19204,0.60509 -0.58395,0.47285 c -0.82779,0.67031 -2.21804,1.0399 -4.51881,1.2013 l -1.99284,0.1398 -2.63737,-0.28889 c -1.45055,-0.15889 -3.589866,-0.53352 -4.754033,-0.83253 l -2.116667,-0.54366 -4.504978,-2.23251 c -2.477739,-1.22788 -5.629336,-2.97323 -7.003553,-3.87856 l -2.498577,-1.64604 -2.455627,-2.39717 -2.455627,-2.39716 2.65e-4,-0.8011 2.64e-4,-0.80109 0.529167,-0.45309 c 0.604337,-0.51734 0.692025,-0.98743 0.184319,-0.98743 -0.660114,0 -2.039699,1.75638 -3.747741,4.77133 l -1.718765,3.03388 -3.233531,2.77812 -3.233531,2.77813 -2.44951,2.91041 c -1.347232,1.600735 -2.573155,2.898515 -2.724275,2.883965 -0.644405,-0.062 -0.755758,-0.12784 -0.913913,-0.53999 l -0.1666,-0.43415 0.449165,-0.690335 c 0.247041,-0.37967 1.444037,-1.84786 2.659991,-3.26264 l 2.210827,-2.57231 3.051521,-2.57789 3.051524,-2.57789 1.171099,-2.25813 c 1.412595,-2.72377 2.861683,-4.68145 4.066001,-5.49304 l 0.892632,-0.60154 h 0.851474 0.851472 l 0.695254,-1.91823 c 0.382389,-1.05503 0.9951,-2.92632 1.36158,-4.15843 l 0.666324,-2.2402 0.519451,-6.35876 c 0.582377,-7.12906 1.000046,-9.824486 2.090886,-13.493593 0.412464,-1.387354 0.704186,-2.522461 0.648269,-2.522461 -0.05592,0 -0.852313,0.34036 -1.769772,0.756354 -0.917456,0.415994 -2.287987,0.905063 -3.045627,1.086818 l -1.377524,0.330462 -0.795133,-0.329356 c -0.924531,-0.382952 -1.307452,-0.981514 -1.295662,-2.025322 0.01344,-1.189963 0.477871,-1.549188 4.632851,-3.583405 l 3.930044,-1.924093 0.341141,-1.719791 c 0.187626,-0.945886 0.713846,-2.47718 1.169376,-3.402876 l 0.828233,-1.683086 1.622576,-1.646756 1.622573,-1.646758 1.069317,-0.467051 1.069318,-0.467052 0.04054,-1.016615 c 0.04989,-1.251071 0.665983,-2.492751 1.511842,-3.04698 l 0.6373,-0.417573 2.466049,-0.232921 c 1.356328,-0.128107 5.561671,-0.263575 9.345221,-0.301042 l 6.87916,-0.06812 5.56,0.840429 c 7.441,1.124751 7.80146,1.27354 7.80146,3.220255 v 0.811144 h 1.16275 c 0.63952,0 1.9312,0.237348 2.8704,0.527439 l 1.70765,0.527438 1.32339,1.399285 1.32338,1.399283 0.33611,1.018434 0.33612,1.018434 -0.12658,2.015781 -0.12658,2.015782 -0.71385,1.5875 c -0.39262,0.873125 -0.67882,1.647031 -0.63601,1.719791 0.0428,0.07276 0.6745,0.381053 1.40376,0.685094 0.72925,0.304043 2.01602,0.886132 2.85948,1.293529 l 1.53357,0.740725 0.39027,0.754711 0.39028,0.754708 -0.16814,0.669914 c -0.21758,0.8669 -1.06871,1.451319 -2.11365,1.451319 h -0.82992 l -2.05574,-0.949811 c -1.13066,-0.522396 -2.51221,-1.110862 -3.07011,-1.307701 l -1.01437,-0.357891 0.51028,1.294598 c 0.28066,0.712028 0.70223,1.746978 0.93683,2.299888 1.88056,4.432168 3.0205,8.853271 3.84076,14.895919 l 0.55669,4.10104 0.13376,5.29167 0.13375,5.29167 -0.55439,5.36654 c -1.10956,10.74063 -2.6188,16.122735 -5.22381,18.628645 -1.66535,1.60201 -3.69008,1.96473 -6.15349,1.10238 z m 7.67295,-65.181944 0.5562,-1.455208 -0.10068,-1.622272 -0.10069,-1.622269 -0.62706,-0.91513 c -0.34488,-0.503322 -1.00215,-1.172152 -1.4606,-1.486286 l -0.83354,-0.571154 -1.48125,-0.273822 -1.48123,-0.273823 -1.80013,0.287571 -1.80011,0.28757 -1.31513,0.713557 c -1.7657,0.958035 -3.66413,2.849788 -4.48453,4.468776 l -0.67228,1.326663 2.16592,0.426709 2.16592,0.42671 1.55311,-1.720824 1.55311,-1.720826 1.09444,-0.559337 1.09444,-0.559337 1.10894,0.01598 1.10893,0.01598 0.77343,0.456879 c 1.71741,1.0145 2.00644,2.505192 0.9724,5.015363 -0.35967,0.873125 -0.6545,1.608984 -0.65518,1.635244 -7.9e-4,0.02625 0.26667,0.09148 0.59409,0.144933 l 0.59531,0.09719 0.45998,-0.541811 c 0.253,-0.297995 0.71028,-1.196652 1.01619,-1.997017 z m -43.023957,0.083 c 0.442648,-2.359511 2.112987,-5.012872 3.658966,-5.812329 l 0.809598,-0.418658 1.231863,-0.01857 1.231863,-0.01857 0.873662,0.512892 0.873662,0.512892 0.492943,0.921914 0.49294,0.921915 v 1.024622 1.024623 l 0.41852,-0.160599 c 0.23018,-0.08835 0.81161,-0.160621 1.29207,-0.160621 h 0.87356 l 0.14261,-0.727604 c 0.20168,-1.029015 -0.28141,-3.067804 -0.96849,-4.087363 -0.74722,-1.108789 -2.26829,-1.958411 -3.891698,-2.173763 l -1.278546,-0.169606 -1.799741,0.286636 -1.799738,0.286634 -1.098312,0.642509 c -1.481466,0.866648 -3.178871,2.830237 -4.082132,4.722283 L 87.918042,41.782925 87.74329,43.1816 c -0.09611,0.769271 -0.100806,1.518322 -0.01042,1.664557 l 0.164325,0.265883 1.556879,-0.525767 1.55688,-0.525767 0.177226,-0.944703 z m 39.142867,0.129638 c 0.79255,-1.590431 0.84627,-2.130364 0.26935,-2.707277 l -0.41577,-0.415774 h -1.05527 -1.05527 l -1.44641,1.367951 c -0.79552,0.752374 -1.40673,1.486993 -1.35823,1.632487 0.0681,0.204412 3.2566,1.319721 4.20171,1.469737 0.0961,0.01527 0.48308,-0.590947 0.85989,-1.347124 z M 98.763872,41.675483 c 0.126291,-0.199358 0.231441,-0.68989 0.233669,-1.090073 l 0.0041,-0.727604 -0.529167,-0.529166 -0.529167,-0.529167 h -1.0227 -1.022652 l -0.704522,0.554178 c -0.711104,0.559353 -1.652667,2.159299 -2.015725,3.425208 l -0.197075,0.687163 2.77681,-0.714037 2.776813,-0.714033 z m 9.845988,29.280482 -0.84277,-0.36655 -0.44197,-0.85467 -0.44197,-0.85468 0.15033,-0.92639 0.15033,-0.92639 0.70858,-0.73959 c 0.38972,-0.40678 1.05689,-0.8161 1.48262,-0.9096 l 0.77403,-0.17001 0.76337,0.3162 c 0.41986,0.17391 0.96762,0.62791 1.21725,1.0089 l 0.45387,0.69269 v 1.12922 1.12922 l -0.50649,0.55966 c -0.57112,0.63108 -1.76264,1.30449 -2.28053,1.28889 -0.18913,-0.006 -0.72312,-0.1753 -1.18665,-0.3769 z m 22.48636,-2.83988 c -0.31977,-0.15449 -0.77838,-0.696 -1.01913,-1.20334 l -0.43773,-0.92244 0.15978,-0.79892 c 0.0879,-0.43941 0.4075,-1.199734 0.71026,-1.689613 l 0.55048,-0.890688 0.64153,-0.161012 0.64153,-0.161015 0.67134,0.439878 c 0.36924,0.241935 0.79545,0.761074 0.94715,1.153647 l 0.2758,0.713766 -0.12931,1.182047 -0.12931,1.18204 -0.82394,0.73618 c -0.88964,0.7949 -1.16519,0.85105 -2.05845,0.41947 z m -23.49567,-4.416457 c -0.7276,-0.09407 -1.47175,-0.265242 -1.65365,-0.380379 l -0.33073,-0.209338 v -0.784685 -0.784683 l 0.67983,-0.258469 0.67982,-0.258466 0.70924,0.161052 c 0.39008,0.08858 1.69597,0.52765 2.90196,0.975717 l 2.19273,0.814663 -0.0789,0.413779 -0.0789,0.413779 -1.84927,0.03404 c -1.01709,0.01873 -2.44458,-0.04293 -3.17219,-0.137006 z m 21.66715,-1.463855 c -0.28296,-0.737376 1.93016,-3.59255 2.78467,-3.59255 1.05362,0 1.45928,1.433349 0.61744,2.181641 -0.48878,0.434469 -2.83659,1.787109 -3.10193,1.787109 -0.0857,0 -0.22078,-0.169291 -0.30018,-0.3762 z"
       id="path402" /></g></svg>
